<svg xmlns="http://www.w3.org/2000/svg" xmlns:xlink="http://www.w3.org/1999/xlink" width="500" zoomAndPan="magnify" viewBox="0 0 375 374.999991" height="500" preserveAspectRatio="xMidYMid meet" version="1.0"><defs><g/></defs><g fill="#000000" fill-opacity="1"><g transform="translate(46.618856, 241.499984)"><g><path d="M 25.234375 -75.53125 C 32.566406 -86.226562 43.320312 -91.578125 57.5 -91.578125 C 70.476562 -91.578125 80.992188 -87.070312 89.046875 -78.0625 C 97.097656 -69.164062 101.125 -58.164062 101.125 -45.0625 C 101.125 -31.96875 97.097656 -20.972656 89.046875 -12.078125 C 80.992188 -3.066406 70.144531 1.4375 56.5 1.4375 C 42.863281 1.4375 32.441406 -3.847656 25.234375 -14.421875 L 25.234375 0 L 11.71875 0 L 11.71875 -126.1875 L 25.234375 -126.1875 Z M 55.703125 -10.8125 C 65.316406 -10.8125 73.128906 -14.175781 79.140625 -20.90625 C 84.785156 -27.28125 87.609375 -35.332031 87.609375 -45.0625 C 87.609375 -54.800781 84.785156 -62.851562 79.140625 -69.21875 C 73.128906 -75.945312 65.316406 -79.3125 55.703125 -79.3125 C 45.960938 -79.3125 38.269531 -75.945312 32.625 -69.21875 C 27.21875 -62.851562 24.515625 -54.800781 24.515625 -45.0625 C 24.515625 -35.332031 27.21875 -27.28125 32.625 -20.90625 C 38.269531 -14.175781 45.960938 -10.8125 55.703125 -10.8125 Z M 55.703125 -10.8125 "/></g></g></g><g fill="#000000" fill-opacity="1"><g transform="translate(225.802974, 241.499984)"><g><path d="M 53.359375 -10.8125 C 59.128906 -10.8125 64.234375 -12.429688 68.671875 -15.671875 C 73.117188 -18.921875 76.367188 -23.128906 78.421875 -28.296875 L 93.015625 -28.296875 C 90.253906 -19.410156 85.207031 -12.257812 77.875 -6.84375 C 70.1875 -1.320312 61.050781 1.4375 50.46875 1.4375 C 37.25 1.4375 26.492188 -3.066406 18.203125 -12.078125 C 10.148438 -20.847656 6.125 -31.84375 6.125 -45.0625 C 6.125 -58.28125 10.148438 -69.28125 18.203125 -78.0625 C 26.492188 -87.070312 37.25 -91.578125 50.46875 -91.578125 C 61.050781 -91.578125 70.1875 -88.8125 77.875 -83.28125 C 85.207031 -77.875 90.253906 -70.722656 93.015625 -61.828125 L 78.421875 -61.828125 C 76.367188 -66.992188 73.117188 -71.195312 68.671875 -74.4375 C 64.234375 -77.6875 59.128906 -79.3125 53.359375 -79.3125 C 47.585938 -79.3125 42.6875 -78.410156 38.65625 -76.609375 C 34.632812 -74.804688 31.242188 -72.34375 28.484375 -69.21875 C 22.597656 -62.726562 19.65625 -54.675781 19.65625 -45.0625 C 19.65625 -35.445312 22.597656 -27.394531 28.484375 -20.90625 C 34.492188 -14.175781 42.785156 -10.8125 53.359375 -10.8125 Z M 53.359375 -10.8125 "/></g></g></g><g fill="#000000" fill-opacity="1"><g transform="translate(133.437992, 241.499984)"><g><path d="M 25.234375 -75.71875 C 32.441406 -86.289062 43.195312 -91.578125 57.5 -91.578125 C 70.476562 -91.578125 80.992188 -87.070312 89.046875 -78.0625 C 97.097656 -69.164062 101.125 -58.164062 101.125 -45.0625 C 101.125 -31.96875 97.097656 -20.972656 89.046875 -12.078125 C 80.992188 -3.066406 70.175781 1.4375 56.59375 1.4375 C 43.019531 1.4375 32.566406 -3.90625 25.234375 -14.59375 L 25.234375 35.6875 L 11.71875 35.6875 L 11.71875 -90.140625 L 25.234375 -90.140625 Z M 55.703125 -79.3125 C 45.960938 -79.3125 38.269531 -75.945312 32.625 -69.21875 C 27.21875 -62.851562 24.515625 -54.800781 24.515625 -45.0625 C 24.515625 -35.332031 27.21875 -27.28125 32.625 -20.90625 C 38.269531 -14.175781 45.960938 -10.8125 55.703125 -10.8125 C 65.316406 -10.8125 73.128906 -14.175781 79.140625 -20.90625 C 84.785156 -27.28125 87.609375 -35.332031 87.609375 -45.0625 C 87.609375 -54.800781 84.785156 -62.851562 79.140625 -69.21875 C 73.128906 -75.945312 65.316406 -79.3125 55.703125 -79.3125 Z M 55.703125 -79.3125 "/></g></g></g><g fill="#000000" fill-opacity="1"><g transform="translate(173.769485, 266.070158)"><g><path d="M 7.96875 -6.609375 C 7.96875 -5.617188 7.566406 -4.945312 6.765625 -4.59375 C 7.503906 -4.34375 8.007812 -3.894531 8.28125 -3.25 C 8.382812 -2.988281 8.4375 -2.691406 8.4375 -2.359375 C 8.4375 -1.273438 7.859375 -0.550781 6.703125 -0.1875 C 6.328125 -0.0625 5.878906 0 5.359375 0 L 1.09375 0 L 1.09375 -8.984375 L 5.125 -8.984375 C 6.09375 -8.984375 6.832031 -8.722656 7.34375 -8.203125 C 7.757812 -7.785156 7.96875 -7.253906 7.96875 -6.609375 Z M 2.125 -4.96875 L 5.125 -4.96875 C 5.957031 -4.96875 6.515625 -5.253906 6.796875 -5.828125 C 6.898438 -6.023438 6.953125 -6.238281 6.953125 -6.46875 C 6.953125 -6.695312 6.921875 -6.898438 6.859375 -7.078125 C 6.796875 -7.253906 6.695312 -7.410156 6.5625 -7.546875 C 6.257812 -7.867188 5.816406 -8.03125 5.234375 -8.03125 L 2.125 -8.03125 Z M 5.46875 -0.96875 C 6.09375 -0.96875 6.570312 -1.09375 6.90625 -1.34375 C 7.238281 -1.601562 7.40625 -1.96875 7.40625 -2.4375 C 7.40625 -2.894531 7.242188 -3.269531 6.921875 -3.5625 C 6.554688 -3.882812 6.035156 -4.046875 5.359375 -4.046875 L 2.125 -4.046875 L 2.125 -0.96875 Z M 5.46875 -0.96875 "/></g></g></g><g fill="#000000" fill-opacity="1"><g transform="translate(182.760764, 266.070158)"><g><path d="M 2.125 0 L 1.09375 0 L 1.09375 -8.984375 L 2.125 -8.984375 Z M 2.125 0 "/></g></g></g><g fill="#000000" fill-opacity="1"><g transform="translate(185.979701, 266.070158)"><g><path d="M 7.96875 -6.609375 C 7.96875 -5.617188 7.566406 -4.945312 6.765625 -4.59375 C 7.503906 -4.34375 8.007812 -3.894531 8.28125 -3.25 C 8.382812 -2.988281 8.4375 -2.691406 8.4375 -2.359375 C 8.4375 -1.273438 7.859375 -0.550781 6.703125 -0.1875 C 6.328125 -0.0625 5.878906 0 5.359375 0 L 1.09375 0 L 1.09375 -8.984375 L 5.125 -8.984375 C 6.09375 -8.984375 6.832031 -8.722656 7.34375 -8.203125 C 7.757812 -7.785156 7.96875 -7.253906 7.96875 -6.609375 Z M 2.125 -4.96875 L 5.125 -4.96875 C 5.957031 -4.96875 6.515625 -5.253906 6.796875 -5.828125 C 6.898438 -6.023438 6.953125 -6.238281 6.953125 -6.46875 C 6.953125 -6.695312 6.921875 -6.898438 6.859375 -7.078125 C 6.796875 -7.253906 6.695312 -7.410156 6.5625 -7.546875 C 6.257812 -7.867188 5.816406 -8.03125 5.234375 -8.03125 L 2.125 -8.03125 Z M 5.46875 -0.96875 C 6.09375 -0.96875 6.570312 -1.09375 6.90625 -1.34375 C 7.238281 -1.601562 7.40625 -1.96875 7.40625 -2.4375 C 7.40625 -2.894531 7.242188 -3.269531 6.921875 -3.5625 C 6.554688 -3.882812 6.035156 -4.046875 5.359375 -4.046875 L 2.125 -4.046875 L 2.125 -0.96875 Z M 5.46875 -0.96875 "/></g></g></g><g fill="#000000" fill-opacity="1"><g transform="translate(194.97098, 266.070158)"><g><path d="M 2.125 -8.984375 L 2.125 -0.984375 L 7.015625 -0.984375 L 7.015625 0 L 1.09375 0 L 1.09375 -8.984375 Z M 2.125 -8.984375 "/></g></g></g><g fill="#000000" fill-opacity="1"><g transform="translate(202.21018, 266.070158)"><g><path d="M 2.125 0 L 1.09375 0 L 1.09375 -8.984375 L 2.125 -8.984375 Z M 2.125 0 "/></g></g></g><g fill="#000000" fill-opacity="1"><g transform="translate(205.429117, 266.070158)"><g><path d="M 5.09375 -9.09375 C 6.425781 -9.09375 7.523438 -8.644531 8.390625 -7.75 C 9.234375 -6.882812 9.65625 -5.800781 9.65625 -4.5 C 9.65625 -3.195312 9.234375 -2.109375 8.390625 -1.234375 C 7.523438 -0.335938 6.425781 0.109375 5.09375 0.109375 C 3.75 0.109375 2.648438 -0.335938 1.796875 -1.234375 C 0.953125 -2.109375 0.53125 -3.195312 0.53125 -4.5 C 0.53125 -5.800781 0.953125 -6.882812 1.796875 -7.75 C 2.648438 -8.644531 3.75 -9.09375 5.09375 -9.09375 Z M 5.09375 -0.875 C 6.15625 -0.875 7.019531 -1.222656 7.6875 -1.921875 C 8.320312 -2.597656 8.640625 -3.457031 8.640625 -4.5 C 8.640625 -5.539062 8.320312 -6.394531 7.6875 -7.0625 C 7.019531 -7.757812 6.15625 -8.109375 5.09375 -8.109375 C 4.019531 -8.109375 3.15625 -7.757812 2.5 -7.0625 C 1.863281 -6.394531 1.546875 -5.539062 1.546875 -4.5 C 1.546875 -3.457031 1.863281 -2.597656 2.5 -1.921875 C 3.15625 -1.222656 4.019531 -0.875 5.09375 -0.875 Z M 5.09375 -0.875 "/></g></g></g><g fill="#000000" fill-opacity="1"><g transform="translate(215.615605, 266.070158)"><g><path d="M 7.484375 -8.015625 L 4.34375 -8.015625 L 4.34375 0 L 3.328125 0 L 3.328125 -8.015625 L 0.1875 -8.015625 L 0.1875 -8.984375 L 7.484375 -8.984375 Z M 7.484375 -8.015625 "/></g></g></g><g fill="#000000" fill-opacity="1"><g transform="translate(223.289429, 266.070158)"><g><path d="M 2.125 -8.015625 L 2.125 -5 L 7.109375 -5 L 7.109375 -4 L 2.125 -4 L 2.125 -0.984375 L 7.71875 -0.984375 L 7.71875 0 L 1.09375 0 L 1.09375 -8.984375 L 7.71875 -8.984375 L 7.71875 -8.015625 Z M 2.125 -8.015625 "/></g></g></g><g fill="#000000" fill-opacity="1"><g transform="translate(231.547279, 266.070158)"><g><path d="M 5.109375 -0.875 C 5.742188 -0.875 6.300781 -1.035156 6.78125 -1.359375 C 7.269531 -1.691406 7.632812 -2.132812 7.875 -2.6875 L 8.953125 -2.6875 C 8.648438 -1.832031 8.15625 -1.160156 7.46875 -0.671875 C 6.738281 -0.148438 5.875 0.109375 4.875 0.109375 C 3.5625 0.109375 2.5 -0.335938 1.6875 -1.234375 C 0.914062 -2.097656 0.53125 -3.1875 0.53125 -4.5 C 0.53125 -5.8125 0.914062 -6.894531 1.6875 -7.75 C 2.5 -8.644531 3.5625 -9.09375 4.875 -9.09375 C 5.875 -9.09375 6.738281 -8.832031 7.46875 -8.3125 C 8.15625 -7.820312 8.648438 -7.148438 8.953125 -6.296875 L 7.875 -6.296875 C 7.632812 -6.847656 7.269531 -7.285156 6.78125 -7.609375 C 6.300781 -7.941406 5.738281 -8.109375 5.09375 -8.109375 C 4.457031 -8.109375 3.925781 -8.015625 3.5 -7.828125 C 3.070312 -7.640625 2.71875 -7.382812 2.4375 -7.0625 C 1.84375 -6.394531 1.546875 -5.539062 1.546875 -4.5 C 1.546875 -3.445312 1.84375 -2.585938 2.4375 -1.921875 C 3.050781 -1.222656 3.941406 -0.875 5.109375 -0.875 Z M 5.109375 -0.875 "/></g></g></g><g fill="#000000" fill-opacity="1"><g transform="translate(240.918857, 266.070158)"><g><path d="M 8.953125 0 L 7.828125 0 L 6.71875 -2.609375 L 2.265625 -2.609375 L 1.171875 0 L 0.046875 0 L 3.859375 -8.984375 L 5.125 -8.984375 Z M 6.328125 -3.546875 L 4.5 -7.921875 L 2.65625 -3.546875 Z M 6.328125 -3.546875 "/></g></g></g><g fill="#000000" fill-opacity="1"><g transform="translate(249.910136, 266.070158)"><g/></g></g><g fill="#000000" fill-opacity="1"><g transform="translate(252.803099, 266.070158)"><g><path d="M 2.125 0 L 1.09375 0 L 1.09375 -8.984375 L 5.140625 -8.984375 C 6.097656 -8.984375 6.851562 -8.722656 7.40625 -8.203125 C 7.957031 -7.671875 8.234375 -6.96875 8.234375 -6.09375 C 8.234375 -5.207031 7.957031 -4.503906 7.40625 -3.984375 C 6.851562 -3.460938 6.097656 -3.203125 5.140625 -3.203125 L 2.125 -3.203125 Z M 2.125 -8.03125 L 2.125 -4.15625 L 5.078125 -4.15625 C 5.785156 -4.15625 6.316406 -4.328125 6.671875 -4.671875 C 7.035156 -5.015625 7.21875 -5.488281 7.21875 -6.09375 C 7.21875 -6.695312 7.035156 -7.171875 6.671875 -7.515625 C 6.316406 -7.859375 5.785156 -8.03125 5.078125 -8.03125 Z M 2.125 -8.03125 "/></g></g></g><g fill="#000000" fill-opacity="1"><g transform="translate(261.332586, 266.070158)"><g><path d="M 8.640625 -8.984375 L 8.640625 -3.875 C 8.640625 -2.675781 8.28125 -1.710938 7.5625 -0.984375 C 6.851562 -0.253906 5.9375 0.109375 4.8125 0.109375 C 3.6875 0.109375 2.765625 -0.253906 2.046875 -0.984375 C 1.335938 -1.710938 0.984375 -2.675781 0.984375 -3.875 L 0.984375 -8.984375 L 2.015625 -8.984375 L 2.015625 -3.84375 C 2.015625 -2.875 2.300781 -2.117188 2.875 -1.578125 C 3.375 -1.109375 4.019531 -0.875 4.8125 -0.875 C 5.59375 -0.875 6.238281 -1.109375 6.75 -1.578125 C 7.332031 -2.109375 7.625 -2.863281 7.625 -3.84375 L 7.625 -8.984375 Z M 4.828125 -11.140625 L 6.28125 -11.140625 L 4.828125 -9.703125 L 4 -9.703125 Z M 4.828125 -11.140625 "/></g></g></g><g fill="#000000" fill-opacity="1"><g transform="translate(270.962216, 266.070158)"><g><path d="M 7.96875 -6.609375 C 7.96875 -5.617188 7.566406 -4.945312 6.765625 -4.59375 C 7.503906 -4.34375 8.007812 -3.894531 8.28125 -3.25 C 8.382812 -2.988281 8.4375 -2.691406 8.4375 -2.359375 C 8.4375 -1.273438 7.859375 -0.550781 6.703125 -0.1875 C 6.328125 -0.0625 5.878906 0 5.359375 0 L 1.09375 0 L 1.09375 -8.984375 L 5.125 -8.984375 C 6.09375 -8.984375 6.832031 -8.722656 7.34375 -8.203125 C 7.757812 -7.785156 7.96875 -7.253906 7.96875 -6.609375 Z M 2.125 -4.96875 L 5.125 -4.96875 C 5.957031 -4.96875 6.515625 -5.253906 6.796875 -5.828125 C 6.898438 -6.023438 6.953125 -6.238281 6.953125 -6.46875 C 6.953125 -6.695312 6.921875 -6.898438 6.859375 -7.078125 C 6.796875 -7.253906 6.695312 -7.410156 6.5625 -7.546875 C 6.257812 -7.867188 5.816406 -8.03125 5.234375 -8.03125 L 2.125 -8.03125 Z M 5.46875 -0.96875 C 6.09375 -0.96875 6.570312 -1.09375 6.90625 -1.34375 C 7.238281 -1.601562 7.40625 -1.96875 7.40625 -2.4375 C 7.40625 -2.894531 7.242188 -3.269531 6.921875 -3.5625 C 6.554688 -3.882812 6.035156 -4.046875 5.359375 -4.046875 L 2.125 -4.046875 L 2.125 -0.96875 Z M 5.46875 -0.96875 "/></g></g></g><g fill="#000000" fill-opacity="1"><g transform="translate(279.953495, 266.070158)"><g><path d="M 2.125 -8.984375 L 2.125 -0.984375 L 7.015625 -0.984375 L 7.015625 0 L 1.09375 0 L 1.09375 -8.984375 Z M 2.125 -8.984375 "/></g></g></g><g fill="#000000" fill-opacity="1"><g transform="translate(287.192695, 266.070158)"><g><path d="M 2.125 0 L 1.09375 0 L 1.09375 -8.984375 L 2.125 -8.984375 Z M 2.125 0 "/></g></g></g><g fill="#000000" fill-opacity="1"><g transform="translate(290.411632, 266.070158)"><g><path d="M 5.109375 -0.875 C 5.742188 -0.875 6.300781 -1.035156 6.78125 -1.359375 C 7.269531 -1.691406 7.632812 -2.132812 7.875 -2.6875 L 8.953125 -2.6875 C 8.648438 -1.832031 8.15625 -1.160156 7.46875 -0.671875 C 6.738281 -0.148438 5.875 0.109375 4.875 0.109375 C 3.5625 0.109375 2.5 -0.335938 1.6875 -1.234375 C 0.914062 -2.097656 0.53125 -3.1875 0.53125 -4.5 C 0.53125 -5.8125 0.914062 -6.894531 1.6875 -7.75 C 2.5 -8.644531 3.5625 -9.09375 4.875 -9.09375 C 5.875 -9.09375 6.738281 -8.832031 7.46875 -8.3125 C 8.15625 -7.820312 8.648438 -7.148438 8.953125 -6.296875 L 7.875 -6.296875 C 7.632812 -6.847656 7.269531 -7.285156 6.78125 -7.609375 C 6.300781 -7.941406 5.738281 -8.109375 5.09375 -8.109375 C 4.457031 -8.109375 3.925781 -8.015625 3.5 -7.828125 C 3.070312 -7.640625 2.71875 -7.382812 2.4375 -7.0625 C 1.84375 -6.394531 1.546875 -5.539062 1.546875 -4.5 C 1.546875 -3.445312 1.84375 -2.585938 2.4375 -1.921875 C 3.050781 -1.222656 3.941406 -0.875 5.109375 -0.875 Z M 5.109375 -0.875 "/></g></g></g><g fill="#000000" fill-opacity="1"><g transform="translate(299.78321, 266.070158)"><g><path d="M 8.953125 0 L 7.828125 0 L 6.71875 -2.609375 L 2.265625 -2.609375 L 1.171875 0 L 0.046875 0 L 3.859375 -8.984375 L 5.125 -8.984375 Z M 6.328125 -3.546875 L 4.5 -7.921875 L 2.65625 -3.546875 Z M 6.328125 -3.546875 "/></g></g></g><g fill="#000000" fill-opacity="1"><g transform="translate(173.769485, 284.820156)"><g><path d="M 5.109375 -0.890625 C 5.753906 -0.890625 6.316406 -1.050781 6.796875 -1.375 C 7.285156 -1.695312 7.648438 -2.132812 7.890625 -2.6875 L 8.953125 -2.6875 C 8.660156 -1.832031 8.164062 -1.160156 7.46875 -0.671875 C 6.738281 -0.148438 5.875 0.109375 4.875 0.109375 C 3.5625 0.109375 2.5 -0.335938 1.6875 -1.234375 C 0.914062 -2.097656 0.53125 -3.1875 0.53125 -4.5 C 0.53125 -5.8125 0.914062 -6.898438 1.6875 -7.765625 C 2.5 -8.660156 3.5625 -9.109375 4.875 -9.109375 C 5.875 -9.109375 6.738281 -8.84375 7.46875 -8.3125 C 8.164062 -7.820312 8.660156 -7.15625 8.953125 -6.3125 L 7.890625 -6.3125 C 7.648438 -6.863281 7.285156 -7.300781 6.796875 -7.625 C 6.316406 -7.945312 5.753906 -8.109375 5.109375 -8.109375 C 4.460938 -8.109375 3.925781 -8.015625 3.5 -7.828125 C 3.082031 -7.648438 2.726562 -7.394531 2.4375 -7.0625 C 1.84375 -6.40625 1.546875 -5.550781 1.546875 -4.5 C 1.546875 -3.445312 1.84375 -2.59375 2.4375 -1.9375 C 3.050781 -1.238281 3.941406 -0.890625 5.109375 -0.890625 Z M 5.109375 -0.890625 "/></g></g></g><g fill="#000000" fill-opacity="1"><g transform="translate(183.149199, 284.820156)"><g><path d="M 8.953125 0 L 7.828125 0 L 6.734375 -2.609375 L 2.265625 -2.609375 L 1.171875 0 L 0.046875 0 L 3.859375 -9 L 5.140625 -9 Z M 6.328125 -3.546875 L 4.5 -7.9375 L 2.671875 -3.546875 Z M 6.328125 -3.546875 "/></g></g></g><g fill="#000000" fill-opacity="1"><g transform="translate(192.148295, 284.820156)"><g><path d="M 9.859375 -9 L 9.859375 0 L 8.828125 0 L 8.828125 -7.453125 L 5.5 -3.171875 L 2.125 -7.453125 L 2.125 0 L 1.09375 0 L 1.09375 -9 L 2.28125 -9 L 5.5 -4.734375 L 8.671875 -9 Z M 9.859375 -9 "/></g></g></g><g fill="#000000" fill-opacity="1"><g transform="translate(203.10489, 284.820156)"><g><path d="M 2.125 0 L 1.09375 0 L 1.09375 -9 L 5.15625 -9 C 6.101562 -9 6.859375 -8.734375 7.421875 -8.203125 C 7.972656 -7.679688 8.25 -6.984375 8.25 -6.109375 C 8.25 -5.210938 7.96875 -4.503906 7.40625 -3.984375 C 6.851562 -3.460938 6.101562 -3.203125 5.15625 -3.203125 L 2.125 -3.203125 Z M 2.125 -8.03125 L 2.125 -4.15625 L 5.078125 -4.15625 C 5.785156 -4.15625 6.320312 -4.328125 6.6875 -4.671875 C 7.050781 -5.015625 7.234375 -5.488281 7.234375 -6.09375 C 7.234375 -6.695312 7.050781 -7.171875 6.6875 -7.515625 C 6.320312 -7.859375 5.785156 -8.03125 5.078125 -8.03125 Z M 2.125 -8.03125 "/></g></g></g><g fill="#000000" fill-opacity="1"><g transform="translate(211.641793, 284.820156)"><g><path d="M 2.125 0 L 1.09375 0 L 1.09375 -9 L 2.125 -9 Z M 2.125 0 "/></g></g></g><g fill="#000000" fill-opacity="1"><g transform="translate(214.863522, 284.820156)"><g><path d="M 8.859375 -9 L 8.859375 0 L 7.6875 0 L 2.125 -7.59375 L 2.125 0 L 1.09375 0 L 1.09375 -9 L 2.28125 -9 L 7.84375 -1.421875 L 7.84375 -9 Z M 4 -10.25 C 3.6875 -10.25 3.460938 -10.070312 3.328125 -9.71875 L 2.90625 -9.71875 C 2.96875 -10.3125 3.21875 -10.71875 3.65625 -10.9375 C 3.8125 -11.007812 4 -11.046875 4.21875 -11.046875 C 4.519531 -11.046875 4.796875 -10.984375 5.046875 -10.859375 C 5.304688 -10.734375 5.5 -10.640625 5.625 -10.578125 C 5.757812 -10.515625 5.914062 -10.484375 6.09375 -10.484375 C 6.269531 -10.484375 6.410156 -10.546875 6.515625 -10.671875 C 6.617188 -10.796875 6.6875 -10.914062 6.71875 -11.03125 L 7.15625 -11.03125 C 7.007812 -10.144531 6.578125 -9.703125 5.859375 -9.703125 C 5.523438 -9.703125 5.234375 -9.765625 4.984375 -9.890625 C 4.742188 -10.015625 4.554688 -10.101562 4.421875 -10.15625 C 4.296875 -10.21875 4.15625 -10.25 4 -10.25 Z M 4 -10.25 "/></g></g></g><g fill="#000000" fill-opacity="1"><g transform="translate(224.827766, 284.820156)"><g><path d="M 8.953125 0 L 7.828125 0 L 6.734375 -2.609375 L 2.265625 -2.609375 L 1.171875 0 L 0.046875 0 L 3.859375 -9 L 5.140625 -9 Z M 6.328125 -3.546875 L 4.5 -7.9375 L 2.671875 -3.546875 Z M 6.328125 -3.546875 "/></g></g></g><g fill="#000000" fill-opacity="1"><g transform="translate(233.826862, 284.820156)"><g><path d="M 2.125 -7.609375 C 1.957031 -7.460938 1.84375 -7.296875 1.78125 -7.109375 C 1.726562 -6.929688 1.703125 -6.738281 1.703125 -6.53125 C 1.703125 -6.332031 1.789062 -6.144531 1.96875 -5.96875 C 2.144531 -5.800781 2.375 -5.660156 2.65625 -5.546875 C 2.945312 -5.429688 3.28125 -5.328125 3.65625 -5.234375 C 4.03125 -5.140625 4.410156 -5.046875 4.796875 -4.953125 C 5.179688 -4.859375 5.554688 -4.75 5.921875 -4.625 C 6.296875 -4.5 6.628906 -4.34375 6.921875 -4.15625 C 7.566406 -3.75 7.890625 -3.191406 7.890625 -2.484375 C 7.890625 -1.640625 7.570312 -0.992188 6.9375 -0.546875 C 6.3125 -0.109375 5.441406 0.109375 4.328125 0.109375 C 3.066406 0.109375 2.101562 -0.148438 1.4375 -0.671875 C 0.851562 -1.148438 0.519531 -1.820312 0.4375 -2.6875 L 1.5 -2.6875 C 1.53125 -2.070312 1.828125 -1.601562 2.390625 -1.28125 C 2.878906 -1 3.53125 -0.859375 4.34375 -0.859375 C 6.019531 -0.859375 6.859375 -1.390625 6.859375 -2.453125 C 6.859375 -2.804688 6.707031 -3.085938 6.40625 -3.296875 C 6.101562 -3.503906 5.722656 -3.675781 5.265625 -3.8125 C 4.804688 -3.957031 4.3125 -4.085938 3.78125 -4.203125 C 3.25 -4.316406 2.753906 -4.46875 2.296875 -4.65625 C 1.847656 -4.84375 1.46875 -5.085938 1.15625 -5.390625 C 0.851562 -5.691406 0.703125 -6.101562 0.703125 -6.625 C 0.703125 -7.351562 0.984375 -7.945312 1.546875 -8.40625 C 2.109375 -8.875 2.957031 -9.109375 4.09375 -9.109375 C 5.226562 -9.109375 6.113281 -8.84375 6.75 -8.3125 C 7.3125 -7.851562 7.613281 -7.257812 7.65625 -6.53125 L 6.609375 -6.53125 C 6.515625 -7.28125 6.035156 -7.773438 5.171875 -8.015625 C 4.859375 -8.109375 4.472656 -8.15625 4.015625 -8.15625 C 3.554688 -8.15625 3.171875 -8.101562 2.859375 -8 C 2.546875 -7.894531 2.300781 -7.765625 2.125 -7.609375 Z M 2.125 -7.609375 "/></g></g></g></svg>