<?xml version="1.0" encoding="utf-8"?>
<!-- Generator: Adobe Illustrator 27.5.0, SVG Export Plug-In . SVG Version: 6.00 Build 0)  -->
<svg version="1.1" xmlns="http://www.w3.org/2000/svg" xmlns:xlink="http://www.w3.org/1999/xlink" x="0px" y="0px"
	 viewBox="0 0 500 500" style="enable-background:new 0 0 500 500;" xml:space="preserve">
<g id="Background_Simple">
	<g>
		<path style="fill:#C6FF00;" d="M440.711,263.756c1.999-26.562-4.184-54.306-12.463-79.034
			c-12.297-36.731-36.17-74.396-76.37-83.09c-23.183-5.014-46.773,0.359-66.645,12.919c-19.115,12.081-34.023,27.686-57.515,30.709
			c-23.768,3.059-48.157,1.827-72.052,1.827c-61.427,0-111.28,64.534-98.817,131.757c12.463,67.222,71.219,113.83,121.074,113.83
			c44.798,0,81.654-26.878,124.204-34.093c21.101-3.578,42.29,0.656,63.169-4.705c24.27-6.232,47.094-21.108,60.539-42.641
			C434.999,296.56,439.459,280.39,440.711,263.756z"/>
		<path style="opacity:0.7;fill:#FFFFFF;" d="M440.711,263.756c1.999-26.562-4.184-54.306-12.463-79.034
			c-12.297-36.731-36.17-74.396-76.37-83.09c-23.183-5.014-46.773,0.359-66.645,12.919c-19.115,12.081-34.023,27.686-57.515,30.709
			c-23.768,3.059-48.157,1.827-72.052,1.827c-61.427,0-111.28,64.534-98.817,131.757c12.463,67.222,71.219,113.83,121.074,113.83
			c44.798,0,81.654-26.878,124.204-34.093c21.101-3.578,42.29,0.656,63.169-4.705c24.27-6.232,47.094-21.108,60.539-42.641
			C434.999,296.56,439.459,280.39,440.711,263.756z"/>
	</g>
</g>
<g id="Plants">
	<g>
		<g>
			<g>
				<path style="fill:#C6FF00;" d="M433.523,254.432c0,0,0-4.974-6.963-11.936c-6.963-6.963-11.439-10.942-11.439-10.942
					s-3.482,11.439,2.984,18.402c6.466,6.963,15.418,13.429,15.418,13.429V254.432z"/>
				<path style="fill:#C6FF00;" d="M423.417,285.492c0,0,0-4.973-6.963-11.936c-6.963-6.963-11.439-10.942-11.439-10.942
					s-3.482,11.439,2.984,18.402c6.466,6.963,15.418,13.429,15.418,13.429V285.492z"/>
				<path style="fill:#C6FF00;" d="M433.085,262.903c0,0,0.525-4.946,8.185-11.134c7.66-6.188,12.531-9.672,12.531-9.672
					s2.253,11.743-4.912,17.984c-7.165,6.241-16.751,11.724-16.751,11.724L433.085,262.903z"/>
				<path style="fill:#C6FF00;" d="M420.877,299.585c0,0,1.042-4.863,9.31-10.213c8.267-5.35,13.478-8.302,13.478-8.302
					s1.007,11.915-6.774,17.368c-7.781,5.454-17.889,9.9-17.889,9.9L420.877,299.585z"/>
				<path style="fill:#C6FF00;" d="M423.172,339.58c0,0,0-4.974,6.963-11.937c6.963-6.963,11.439-10.942,11.439-10.942
					s3.482,11.439-2.984,18.402c-6.466,6.963-15.418,13.429-15.418,13.429V339.58z"/>
				<path style="fill:#C6FF00;" d="M423.056,349.342c0,0,0.707-4.923-5.196-12.805c-5.903-7.882-9.768-12.456-9.768-12.456
					s-5.072,10.828,0.339,18.639c5.41,7.811,13.353,15.483,13.353,15.483L423.056,349.342z"/>
				<path style="fill:#C6FF00;" d="M416.19,378.273c0,0,0-4.973,6.963-11.936c6.963-6.963,11.439-10.942,11.439-10.942
					s3.482,11.439-2.984,18.402c-6.466,6.963-15.418,13.429-15.418,13.429V378.273z"/>
				<path style="fill:#C6FF00;" d="M420.84,404.504c0,0-1.26-4.811,3.713-13.311c4.972-8.499,8.295-13.482,8.295-13.482
					s6.265,10.184,1.774,18.558c-4.491,8.374-11.514,16.896-11.514,16.896L420.84,404.504z"/>
			</g>
			<path style="fill:none;stroke:#263238;stroke-linecap:round;stroke-linejoin:round;stroke-miterlimit:10;" d="M434.154,253.157
				c-0.408,5.316-1.012,10.816-1.907,15.443c-2.752,14.221-9.634,23.396-12.386,36.24c-2.753,12.845,5.149,29.393,3.033,45.891
				c-2.116,16.498-8.538,25.673-6.703,36.682c1.835,11.01,11.469,40.828,11.469,40.828"/>
			
				<line style="fill:none;stroke:#263238;stroke-linecap:round;stroke-linejoin:round;stroke-miterlimit:10;" x1="433.016" y1="266.208" x2="440.52" y2="260.449"/>
			
				<line style="fill:none;stroke:#263238;stroke-linecap:round;stroke-linejoin:round;stroke-miterlimit:10;" x1="433.365" y1="259.577" x2="430.224" y2="253.993"/>
			<path style="fill:none;stroke:#263238;stroke-linecap:round;stroke-linejoin:round;stroke-miterlimit:10;" d="M420.277,304.25
				c0,0,6.282-4.712,12.739-9.423"/>
			<path style="fill:none;stroke:#263238;stroke-linecap:round;stroke-linejoin:round;stroke-miterlimit:10;" d="M423.417,294.445
				c0,0-5.234-10.263-11.167-17.068"/>
			<path style="fill:none;stroke:#263238;stroke-linecap:round;stroke-linejoin:round;stroke-miterlimit:10;" d="M423.419,346.655
				c0,0,4.886-9.598,13.437-17.974"/>
			<path style="fill:none;stroke:#263238;stroke-linecap:round;stroke-linejoin:round;stroke-miterlimit:10;" d="M422.197,353.635
				c0,0-3.141-7.504-6.806-12.913c-3.665-5.41-4.188-6.108-4.188-6.108"/>
			<path style="fill:none;stroke:#263238;stroke-linecap:round;stroke-linejoin:round;stroke-miterlimit:10;" d="M416.19,387.413
				c0,0,2.516-6.381,5.658-11.441c3.141-5.061,7.329-9.598,7.329-9.598"/>
			<path style="fill:none;stroke:#263238;stroke-linecap:round;stroke-linejoin:round;stroke-miterlimit:10;" d="M423.107,413.164
				c0,0-0.736-5.956,1.882-11.016c2.618-5.061,5.584-11.692,6.806-14.309"/>
		</g>
		<g>
			<g>
				<path style="fill:#C6FF00;" d="M376.701,320.875c0,0-0.54-3.119,3.07-8.241c3.611-5.122,5.985-8.103,5.985-8.103
					s3.425,6.795,0.126,11.863c-3.299,5.068-8.211,10.095-8.211,10.095L376.701,320.875z"/>
				<path style="fill:#C6FF00;" d="M386.409,339.256c0,0-0.54-3.119,3.071-8.241c3.61-5.122,5.985-8.103,5.985-8.103
					s3.425,6.795,0.126,11.863c-3.299,5.068-8.211,10.095-8.211,10.095L386.409,339.256z"/>
				<path style="fill:#C6FF00;" d="M377.895,326.14c0,0-0.866-3.044-6.341-6.093c-5.475-3.049-8.908-4.705-8.908-4.705
					s-0.138,7.608,5.032,10.744c5.171,3.136,11.777,5.534,11.777,5.534L377.895,326.14z"/>
				<path style="fill:#C6FF00;" d="M389.532,347.817c0,0-1.182-2.936-6.947-5.393c-5.765-2.457-9.353-3.743-9.353-3.743
					s0.662,7.581,6.133,10.156c5.471,2.575,12.293,4.266,12.293,4.266L389.532,347.817z"/>
				<path style="fill:#C6FF00;" d="M392.435,373.146c0,0-0.54-3.119-5.662-6.729c-5.122-3.611-8.361-5.62-8.361-5.62
					s-0.941,7.551,3.869,11.216c4.81,3.664,11.126,6.747,11.126,6.747L392.435,373.146z"/>
				<path style="fill:#C6FF00;" d="M393.567,379.255c0,0-0.978-3.01,1.868-8.594c2.846-5.583,4.773-8.872,4.773-8.872
					s4.356,6.24,1.811,11.725c-2.545,5.486-6.693,11.159-6.693,11.159L393.567,379.255z"/>
				<path style="fill:#C6FF00;" d="M402.307,404.413c0,0,0.361-3.145,5.269-7.041c4.908-3.897,8.027-6.088,8.027-6.088
					s1.371,7.485-3.223,11.418c-4.593,3.933-10.723,7.371-10.723,7.371L402.307,404.413z"/>
				<path style="fill:#C6FF00;" d="M401.014,396.652c0,0-0.54-3.119-5.662-6.729c-5.122-3.61-8.361-5.62-8.361-5.62
					s-0.941,7.551,3.869,11.216c4.81,3.664,11.126,6.747,11.126,6.747L401.014,396.652z"/>
				<path style="fill:#C6FF00;" d="M400.946,413.605c0,0,0.268-3.154-3.773-7.944c-4.041-4.79-6.665-7.554-6.665-7.554
					s-2.823,7.067,0.902,11.83s9.055,9.345,9.055,9.345L400.946,413.605z"/>
			</g>
			<path style="fill:none;stroke:#263238;stroke-linecap:round;stroke-linejoin:round;stroke-miterlimit:10;" d="M376.167,320.144
				c0.833,3.289,1.809,6.673,2.872,9.477c3.27,8.619,8.581,13.625,11.701,21.381c3.12,7.756-0.038,18.991,3.08,29.106
				c3.118,10.116,8.141,15.172,8.186,22.275c0.045,7.103-2.759,26.847-2.759,26.847"/>
			
				<line style="fill:none;stroke:#263238;stroke-linecap:round;stroke-linejoin:round;stroke-miterlimit:10;" x1="378.297" y1="328.205" x2="372.966" y2="325.408"/>
			
				<line style="fill:none;stroke:#263238;stroke-linecap:round;stroke-linejoin:round;stroke-miterlimit:10;" x1="377.358" y1="324.085" x2="378.721" y2="320.242"/>
			<path style="fill:none;stroke:#263238;stroke-linecap:round;stroke-linejoin:round;stroke-miterlimit:10;" d="M390.415,350.678
				c0,0-4.451-2.273-9.011-4.526"/>
			<path style="fill:none;stroke:#263238;stroke-linecap:round;stroke-linejoin:round;stroke-miterlimit:10;" d="M387.381,344.87
				c0,0,2.168-7.004,5.15-11.916"/>
			<path style="fill:none;stroke:#263238;stroke-linecap:round;stroke-linejoin:round;stroke-miterlimit:10;" d="M393.048,377.61
				c0,0-4.106-5.488-10.377-9.813"/>
			<path style="fill:none;stroke:#263238;stroke-linecap:round;stroke-linejoin:round;stroke-miterlimit:10;" d="M394.572,381.854
				c0,0,1.155-5.046,2.866-8.837c1.711-3.79,1.963-4.285,1.963-4.285"/>
			<path style="fill:none;stroke:#263238;stroke-linecap:round;stroke-linejoin:round;stroke-miterlimit:10;" d="M401.764,407.772
				c0,0,3.533-4.331,5.732-5.952c2.199-1.62,3.723-3.237,3.723-3.237"/>
			<path style="fill:none;stroke:#263238;stroke-linecap:round;stroke-linejoin:round;stroke-miterlimit:10;" d="M402.006,402.384
				c0,0-2.271-3.728-4.79-6.56c-2.519-2.832-5.638-5.223-5.638-5.223"/>
			<path style="fill:none;stroke:#263238;stroke-linecap:round;stroke-linejoin:round;stroke-miterlimit:10;" d="M400.464,419.283
				c0,0-0.185-3.815-2.376-6.704c-2.191-2.889-4.771-6.726-5.821-8.234"/>
		</g>
	</g>
</g>
<g id="Bookshelf">
	<g>
		<g>
			<polygon style="fill:#C6FF00;" points="92.673,277.32 88.293,264.805 92.673,270.124 89.232,251.352 94.55,264.805 
				96.428,238.524 99.557,263.554 102.998,258.548 102.998,264.805 107.066,256.358 104.875,271.063 108.63,268.56 102.685,276.695 
							"/>
			<polygon style="fill:#263238;stroke:#263238;stroke-linecap:round;stroke-linejoin:round;stroke-miterlimit:10;" points="
				106.44,274.192 90.17,274.192 93.099,307.044 103.511,307.044 			"/>
		</g>
		
			<rect x="81.527" y="306.665" style="fill:#FFFFFF;stroke:#263238;stroke-linecap:round;stroke-linejoin:round;stroke-miterlimit:10;" width="55.425" height="117.397"/>
		
			<rect x="109.24" y="306.665" style="fill:#FFFFFF;stroke:#263238;stroke-linecap:round;stroke-linejoin:round;stroke-miterlimit:10;" width="30.75" height="117.397"/>
		
			<rect x="109.24" y="306.665" style="fill:#263238;stroke:#263238;stroke-linecap:round;stroke-linejoin:round;stroke-miterlimit:10;" width="27.285" height="117.397"/>
		<g>
			
				<rect x="109.24" y="396.775" style="fill:#C6FF00;stroke:#263238;stroke-linecap:round;stroke-linejoin:round;stroke-miterlimit:10;" width="24.221" height="24.042"/>
			
				<rect x="109.24" y="398.074" style="fill:#FFFFFF;stroke:#263238;stroke-linecap:round;stroke-linejoin:round;stroke-miterlimit:10;" width="24.221" height="3.082"/>
			
				<rect x="109.24" y="415.771" style="fill:#FFFFFF;stroke:#263238;stroke-linecap:round;stroke-linejoin:round;stroke-miterlimit:10;" width="24.221" height="3.082"/>
			
				<line style="fill:none;stroke:#263238;stroke-linecap:round;stroke-linejoin:round;stroke-miterlimit:10;" x1="113.834" y1="397.27" x2="113.834" y2="427.67"/>
			
				<line style="fill:none;stroke:#263238;stroke-linecap:round;stroke-linejoin:round;stroke-miterlimit:10;" x1="122.28" y1="397.27" x2="122.28" y2="427.67"/>
			
				<line style="fill:none;stroke:#263238;stroke-linecap:round;stroke-linejoin:round;stroke-miterlimit:10;" x1="129.697" y1="397.27" x2="129.697" y2="427.67"/>
		</g>
		<g>
			
				<rect x="109.24" y="311.029" style="fill:#C6FF00;stroke:#263238;stroke-linecap:round;stroke-linejoin:round;stroke-miterlimit:10;" width="24.221" height="35.35"/>
			
				<rect x="109.24" y="312.506" style="fill:#FFFFFF;stroke:#263238;stroke-linecap:round;stroke-linejoin:round;stroke-miterlimit:10;" width="24.221" height="3.502"/>
			
				<rect x="109.24" y="335.167" style="fill:#FFFFFF;stroke:#263238;stroke-linecap:round;stroke-linejoin:round;stroke-miterlimit:10;" width="24.221" height="3.502"/>
			
				<line style="fill:none;stroke:#263238;stroke-linecap:round;stroke-linejoin:round;stroke-miterlimit:10;" x1="113.834" y1="311.591" x2="113.834" y2="346.135"/>
			
				<line style="fill:none;stroke:#263238;stroke-linecap:round;stroke-linejoin:round;stroke-miterlimit:10;" x1="122.28" y1="311.591" x2="122.28" y2="346.135"/>
			
				<line style="fill:none;stroke:#263238;stroke-linecap:round;stroke-linejoin:round;stroke-miterlimit:10;" x1="129.697" y1="311.591" x2="129.697" y2="346.135"/>
		</g>
		<g>
			
				<rect x="109.24" y="353.634" style="fill:#C6FF00;stroke:#263238;stroke-linecap:round;stroke-linejoin:round;stroke-miterlimit:10;" width="24.221" height="35.35"/>
			
				<rect x="109.24" y="355.111" style="fill:#FFFFFF;stroke:#263238;stroke-linecap:round;stroke-linejoin:round;stroke-miterlimit:10;" width="24.221" height="3.502"/>
			
				<rect x="109.24" y="377.772" style="fill:#FFFFFF;stroke:#263238;stroke-linecap:round;stroke-linejoin:round;stroke-miterlimit:10;" width="24.221" height="3.502"/>
			
				<line style="fill:none;stroke:#263238;stroke-linecap:round;stroke-linejoin:round;stroke-miterlimit:10;" x1="113.834" y1="354.196" x2="113.834" y2="388.74"/>
			
				<line style="fill:none;stroke:#263238;stroke-linecap:round;stroke-linejoin:round;stroke-miterlimit:10;" x1="122.28" y1="354.196" x2="122.28" y2="388.74"/>
			
				<line style="fill:none;stroke:#263238;stroke-linecap:round;stroke-linejoin:round;stroke-miterlimit:10;" x1="129.697" y1="354.196" x2="129.697" y2="388.74"/>
		</g>
		
			<rect x="109.24" y="345.891" style="fill:#FFFFFF;stroke:#263238;stroke-linecap:round;stroke-linejoin:round;stroke-miterlimit:10;" width="27.713" height="4.019"/>
		
			<rect x="109.24" y="388.763" style="fill:#FFFFFF;stroke:#263238;stroke-linecap:round;stroke-linejoin:round;stroke-miterlimit:10;" width="27.713" height="4.019"/>
		
			<line style="fill:none;stroke:#263238;stroke-linecap:round;stroke-linejoin:round;stroke-miterlimit:10;" x1="136.953" y1="306.665" x2="136.953" y2="424.062"/>
		<polygon style="fill:#FFFFFF;stroke:#263238;stroke-linecap:round;stroke-linejoin:round;stroke-miterlimit:10;" points="
			105.334,306.665 105.334,424.062 109.24,424.062 109.24,311.029 136.473,311.029 136.473,306.622 		"/>
		
			<line style="fill:none;stroke:#263238;stroke-linecap:round;stroke-linejoin:round;stroke-miterlimit:10;" x1="109.24" y1="311.029" x2="109.24" y2="306.665"/>
	</g>
</g>
<g id="Character">
	<g>
		<g>
			<defs>
				<path id="XMLID_34_" d="M136.743,252.736c-2.915-5.603-4.137-9.63-4.137-10.558c0-1.834,4.036-2.935,4.036-2.935
					c6.237-3.302,35.589,1.468,48.797,3.669c13.208,2.201,22.381,2.201,22.381,2.201s1.835-1.468,4.036-3.302
					s12.475-13.942,16.51-15.043c4.036-1.101,7.705,1.468,7.705,1.468s6.604,4.036,5.503,4.77
					c-1.101,0.734-17.244,14.676-21.28,17.244s-12.475,1.468-19.812,2.935c-6.317,1.263-31.92,2.824-37.79,3.302
					c0,0-5.87,1.834-13.208-1.101"/>
			</defs>
			<use xlink:href="#XMLID_34_"  style="overflow:visible;fill:#FFFFFF;"/>
			<clipPath id="XMLID_00000152947866196536723800000011358762788886188462_">
				<use xlink:href="#XMLID_34_"  style="overflow:visible;"/>
			</clipPath>
			<path style="clip-path:url(#XMLID_00000152947866196536723800000011358762788886188462_);fill:#C6FF00;" d="M236.071,228.237
				c0,0-3.669-2.568-7.705-1.468c-4.036,1.101-14.309,13.208-16.51,15.043c-2.201,1.834-4.036,3.302-4.036,3.302
				s-9.172,0-22.381-2.201c-13.208-2.201-42.56-6.971-48.797-3.669c0,0-4.036,1.101-4.036,2.935c0,0.42,0.254,1.481,0.799,3.031
				c0.347,0.125,0.548,0.197,0.548,0.197s7.33-0.772,23.147-0.386c15.817,0.386,52.414,2.546,54.755,3.395
				c1.057,0.383,8.093-1.221,15.95-3.979c5.973-4.889,13.052-10.953,13.768-11.431C242.675,232.273,236.071,228.237,236.071,228.237
				z"/>
			<path style="opacity:0.5;clip-path:url(#XMLID_00000152947866196536723800000011358762788886188462_);fill:#FFFFFF;" d="
				M236.071,228.237c0,0-3.669-2.568-7.705-1.468c-4.036,1.101-14.309,13.208-16.51,15.043c-2.201,1.834-4.036,3.302-4.036,3.302
				s-9.172,0-22.381-2.201c-13.208-2.201-42.56-6.971-48.797-3.669c0,0-4.036,1.101-4.036,2.935c0,0.42,0.254,1.481,0.799,3.031
				c0.347,0.125,0.548,0.197,0.548,0.197s7.33-0.772,23.147-0.386c15.817,0.386,52.414,2.546,54.755,3.395
				c1.057,0.383,8.093-1.221,15.95-3.979c5.973-4.889,13.052-10.953,13.768-11.431C242.675,232.273,236.071,228.237,236.071,228.237
				z"/>
			
				<use xlink:href="#XMLID_34_"  style="overflow:visible;fill:none;stroke:#263238;stroke-linecap:round;stroke-linejoin:round;stroke-miterlimit:10;"/>
		</g>
		<g>
			<defs>
				<path id="XMLID_33_" d="M281.651,285.355c1.346-2.569,4.017-4.168,6.918-4.168h66.703c0,0,4.822,0,3.375,9.161
					c-1.446,9.161-21.215,65.091-26.037,81.967c-4.822,16.875-5.786,52.555-5.786,52.555h-80.038
					C246.787,424.871,253.199,339.673,281.651,285.355z"/>
			</defs>
			<use xlink:href="#XMLID_33_"  style="overflow:visible;fill:#FFFFFF;"/>
			<clipPath id="XMLID_00000145754217285396684070000016690925377616438970_">
				<use xlink:href="#XMLID_33_"  style="overflow:visible;"/>
			</clipPath>
			<path style="opacity:0.16;clip-path:url(#XMLID_00000145754217285396684070000016690925377616438970_);" d="M311.694,281.188
				h-23.125c-2.901,0-5.572,1.598-6.918,4.168c-28.451,54.317-34.864,139.515-34.864,139.515h35.887l8.845-33.609l36.903,7.609
				c0.261-2.819,0.562-5.689,0.907-8.516l-0.804-9.04c0,0-7.56-7.958-9.948-9.948c-2.387-1.99-0.796-5.571-1.194-21.09
				c-0.398-15.519-14.325-26.661-19.498-36.211c-5.173-9.55,2.786-15.519,9.948-25.069
				C310.385,285.593,311.417,283.053,311.694,281.188z"/>
			
				<use xlink:href="#XMLID_33_"  style="overflow:visible;fill:none;stroke:#263238;stroke-linecap:round;stroke-linejoin:round;stroke-miterlimit:10;"/>
		</g>
		<path style="fill:#263238;stroke:#263238;stroke-linecap:round;stroke-linejoin:round;stroke-miterlimit:10;" d="M343.7,297.099
			c-6.744,15.735-21.03,77.997-23.322,127.772h6.446c0,0,0.964-35.68,5.786-52.555c4.822-16.876,24.59-72.806,26.037-81.967
			c1.446-9.161-3.375-9.161-3.375-9.161S349.106,284.486,343.7,297.099z"/>
		<g>
			<path style="fill:#263238;stroke:#263238;stroke-linecap:round;stroke-linejoin:round;stroke-miterlimit:10;" d="M226.532,265.66
				c0,0-10.64-6.237-14.676-17.244c-4.036-11.007,31.553-28.618,46.963-29.719c15.41-1.101,19.813,2.935,28.985,18.712
				c9.172,15.777,15.41,37.424,10.64,48.064c-4.77,10.64-12.841,13.208-6.971,22.014c5.87,8.806,22.381,33.755,21.28,45.495
				c-1.101,11.741-12.474,22.014-28.985,23.115c-16.51,1.101-38.524-8.806-56.869-24.949c-18.345-16.143-13.575-39.992-6.971-47.697
				c6.604-7.705,16.51-10.64,17.244-18.345C237.905,277.401,226.532,265.66,226.532,265.66z"/>
			<g>
				<path style="fill:none;stroke:#FFFFFF;stroke-linecap:round;stroke-linejoin:round;stroke-miterlimit:10;" d="M271.876,248.249
					c5.655,10.52,12.723,24.611,14.929,33.122c3.863,14.898-16.002,24.279-10.484,31.452"/>
				<path style="fill:none;stroke:#FFFFFF;stroke-linecap:round;stroke-linejoin:round;stroke-miterlimit:10;" d="M264.182,234.468
					c0,0,2.197,3.748,5.243,9.276"/>
				<path style="fill:none;stroke:#FFFFFF;stroke-linecap:round;stroke-linejoin:round;stroke-miterlimit:10;" d="M293.82,260.938
					c0.647,2.008,1.088,4.044,1.263,6.086"/>
				<path style="fill:none;stroke:#FFFFFF;stroke-linecap:round;stroke-linejoin:round;stroke-miterlimit:10;" d="M268.044,228.95
					c0,0,17.374,12.842,24.311,28.213"/>
				<path style="fill:none;stroke:#FFFFFF;stroke-linecap:round;stroke-linejoin:round;stroke-miterlimit:10;" d="M243.876,238.626
					c-12.411,3.488-30.254,9.133-28.803,12.396"/>
				<path style="fill:none;stroke:#FFFFFF;stroke-linecap:round;stroke-linejoin:round;stroke-miterlimit:10;" d="M255.353,235.571
					c0,0-2.656,0.655-6.604,1.716"/>
				<path style="fill:none;stroke:#FFFFFF;stroke-linecap:round;stroke-linejoin:round;stroke-miterlimit:10;" d="M239.991,229.095
					c4.557-1.503,12.064-3.224,21.984-2.904"/>
				<path style="fill:none;stroke:#FFFFFF;stroke-linecap:round;stroke-linejoin:round;stroke-miterlimit:10;" d="M234.937,231.157
					c0,0,1.2-0.667,3.484-1.514"/>
			</g>
		</g>
		<g>
			<defs>
				<path id="XMLID_32_" d="M132.606,242.179c0,0.058,0.005,0.128,0.014,0.209C132.611,242.307,132.606,242.237,132.606,242.179z
					 M136.743,252.736c-2.366-4.549-3.617-8.059-4.004-9.714C133.125,244.676,134.376,248.186,136.743,252.736z M132.629,242.446
					c0.009,0.068,0.019,0.138,0.035,0.221C132.648,242.585,132.639,242.515,132.629,242.446z M132.677,242.729
					c0.017,0.09,0.037,0.183,0.061,0.288C132.713,242.912,132.694,242.819,132.677,242.729z M136.743,252.736
					c2.848,5.476,7.312,12.456,13.84,19.528c13.208,14.309,51.366,51.733,55.035,54.301c3.669,2.568,2.568,9.906,0,17.244
					c-2.568,7.338-12.108,17.978-11.741,29.719c0.367,11.741,4.036,29.719,3.669,33.388c-0.367,3.669-9.539,16.143-9.539,16.143
					h94.66c0,0-11.792-14.988-11.792-20.124c0-5.137,16.195-70.866,16.929-75.636c0.734-4.77-2.201-8.072-8.072-8.439
					c-5.87-0.367-28.251-5.137-29.352-8.806c-1.101-3.669,5.87-17.611,5.87-17.611l-22.014,1.101c0,0-1.101,9.539-2.568,11.374
					c-1.468,1.835-3.669-1.835-8.805-4.403c-5.137-2.568-15.043-4.77-18.712-7.705c-3.669-2.935-38.891-35.956-38.891-35.956"/>
			</defs>
			<use xlink:href="#XMLID_32_"  style="overflow:visible;fill:#FFFFFF;"/>
			<clipPath id="XMLID_00000139286218281379229140000008942065113135502244_">
				<use xlink:href="#XMLID_32_"  style="overflow:visible;"/>
			</clipPath>
			<g style="clip-path:url(#XMLID_00000139286218281379229140000008942065113135502244_);">
				<path style="fill:#C6FF00;" d="M209.767,295.645c1.835,3.199,3.659,6.087,3.659,6.087s6.173,3.472,7.716,3.472
					c1.543,0,10.802,5.015,10.802,5.015s7.716-1.929,5.015-8.487c-0.475-1.154-1.629-2.756-3.218-4.622
					c-0.459,2.912-1.201,6.719-2.073,7.809c-1.468,1.835-3.669-1.835-8.805-4.403C219.507,298.838,214.125,297.316,209.767,295.645z
					"/>
				<path style="fill:#C6FF00;" d="M190.932,280.791c-11.334-10.495-25.672-23.936-25.672-23.936l-8.339-1.204l-0.977,0.558
					c0,0,23.533,20.833,28.548,23.147C187.6,280.791,189.226,280.596,190.932,280.791z"/>
				<path style="fill:#C6FF00;" d="M202.803,291.652c-0.271-0.239-0.571-0.507-0.9-0.802c0.456,0.756,0.72,1.237,0.72,1.237
					S202.688,291.916,202.803,291.652z"/>
			</g>
			<g style="opacity:0.5;clip-path:url(#XMLID_00000139286218281379229140000008942065113135502244_);">
				<path style="fill:#FFFFFF;" d="M209.767,295.645c1.835,3.199,3.659,6.087,3.659,6.087s6.173,3.472,7.716,3.472
					c1.543,0,10.802,5.015,10.802,5.015s7.716-1.929,5.015-8.487c-0.475-1.154-1.629-2.756-3.218-4.622
					c-0.459,2.912-1.201,6.719-2.073,7.809c-1.468,1.835-3.669-1.835-8.805-4.403C219.507,298.838,214.125,297.316,209.767,295.645z
					"/>
				<path style="fill:#FFFFFF;" d="M190.932,280.791c-11.334-10.495-25.672-23.936-25.672-23.936l-8.339-1.204l-0.977,0.558
					c0,0,23.533,20.833,28.548,23.147C187.6,280.791,189.226,280.596,190.932,280.791z"/>
				<path style="fill:#FFFFFF;" d="M202.803,291.652c-0.271-0.239-0.571-0.507-0.9-0.802c0.456,0.756,0.72,1.237,0.72,1.237
					S202.688,291.916,202.803,291.652z"/>
			</g>
			
				<use xlink:href="#XMLID_32_"  style="overflow:visible;fill:none;stroke:#263238;stroke-linecap:round;stroke-linejoin:round;stroke-miterlimit:10;"/>
		</g>
		<path style="fill:none;stroke:#263238;stroke-linecap:round;stroke-linejoin:round;stroke-miterlimit:10;" d="M165.26,256.855
			c0,0-11.715,0.219-18.262-5.172"/>
		<g>
			<defs>
				<path id="XMLID_31_" d="M250.38,310.055c-1.101-3.669,5.87-17.611,5.87-17.611l-22.014,1.101c0,0-1.101,9.539-2.568,11.374
					c-1.468,1.835-3.669-1.835-8.805-4.403c-0.391-0.196-0.818-0.389-1.26-0.58l-1.335,20.918c0,0,1.929,20.251,25.072,16.393
					c9.369-1.562,19.37-9.919,27.956-19.314C264.465,316.298,251.22,312.857,250.38,310.055z"/>
			</defs>
			<use xlink:href="#XMLID_31_"  style="overflow:visible;fill:#FFFFFF;"/>
			<clipPath id="XMLID_00000136403859863777284030000015109401811903225236_">
				<use xlink:href="#XMLID_31_"  style="overflow:visible;"/>
			</clipPath>
			<path style="clip-path:url(#XMLID_00000136403859863777284030000015109401811903225236_);fill:#C6FF00;" d="M249.758,295.208
				c0,0-1.332,7.458-2.397,15.715c-1.065,8.257-1.864,14.383-1.864,14.383l4.883-15.251l5.504-16.178
				C255.884,293.877,250.557,293.877,249.758,295.208z"/>
			<path style="opacity:0.5;clip-path:url(#XMLID_00000136403859863777284030000015109401811903225236_);fill:#FFFFFF;" d="
				M249.758,295.208c0,0-1.332,7.458-2.397,15.715c-1.065,8.257-1.864,14.383-1.864,14.383l4.883-15.251l5.504-16.178
				C255.884,293.877,250.557,293.877,249.758,295.208z"/>
			
				<use xlink:href="#XMLID_31_"  style="overflow:visible;fill:none;stroke:#263238;stroke-linecap:round;stroke-linejoin:round;stroke-miterlimit:10;"/>
		</g>
		<g>
			<g>
				<defs>
					<path id="XMLID_30_" d="M231.668,304.918c-1.468,1.835-3.669-1.835-8.805-4.403c-3.247-1.624-8.398-3.101-12.677-4.71
						c-1.211-2.866-2.808-6.61-3.834-8.866c-1.835-4.036-4.77-1.467-4.77-1.467s-1.835-1.835-3.669-5.87
						c-1.834-4.036-4.77-3.669-8.806-4.403c-4.036-0.734-12.474-8.439-12.474-8.439s-3.949-2.958-5.587-4.489
						c-1.895,3.743-6.45,10.322-16.285,14.427c15.684,16.392,47.52,47.532,50.856,49.867c3.669,2.568,2.568,9.906,0,17.244
						c-2.568,7.338-12.108,17.978-11.741,29.719c0.367,11.741,4.036,29.719,3.669,33.388c-0.327,3.27-7.645,13.529-9.232,15.721
						l3.729,0.422h19.413c-0.105-9.837-0.1-50.001,6.637-66.042C225.798,338.673,231.668,304.918,231.668,304.918z"/>
				</defs>
				<use xlink:href="#XMLID_30_"  style="overflow:visible;fill:#C6FF00;"/>
				<clipPath id="XMLID_00000069379728561566494530000011710898912450484118_">
					<use xlink:href="#XMLID_30_"  style="overflow:visible;"/>
				</clipPath>
				<path style="opacity:0.16;clip-path:url(#XMLID_00000069379728561566494530000011710898912450484118_);" d="M222.863,300.516
					c-3.247-1.624-8.398-3.101-12.677-4.71c-1.211-2.866-2.808-6.61-3.834-8.866c-1.835-4.036-4.77-1.467-4.77-1.467
					s-1.835-1.835-3.669-5.87c-1.834-4.036-4.77-3.669-8.806-4.403c-4.036-0.734-12.474-8.439-12.474-8.439
					s-3.949-2.958-5.587-4.489c-0.632,1.247-1.568,2.812-2.887,4.493c6.558,5.542,13.801,11.423,16.332,12.591
					c5.015,2.315,6.173,0.386,10.031,2.701c3.858,2.315,8.101,10.03,8.101,10.03s2.315-6.173,4.244-1.929
					c1.929,4.244,6.558,11.574,6.558,11.574s6.173,3.472,7.716,3.472c1.209,0,7.14,3.071,9.657,4.404
					c0.562-2.924,0.87-4.69,0.87-4.69C230.201,306.753,227.999,303.084,222.863,300.516z"/>
				
					<use xlink:href="#XMLID_30_"  style="overflow:visible;fill:none;stroke:#263238;stroke-linecap:round;stroke-linejoin:round;stroke-miterlimit:10;"/>
			</g>
			<g>
				<defs>
					<path id="XMLID_29_" d="M231.93,303.644c0,0-4.561-1.403-7.368,1.052c-2.807,2.456-7.017,15.087-9.473,28.77
						c-2.456,13.683,3.004,23.551,3.004,23.551s5.768-15.131,7.522-22.499C227.369,327.151,231.93,303.644,231.93,303.644z"/>
				</defs>
				<use xlink:href="#XMLID_29_"  style="overflow:visible;fill:#C6FF00;"/>
				<clipPath id="XMLID_00000160903729622923737970000010887938149978728115_">
					<use xlink:href="#XMLID_29_"  style="overflow:visible;"/>
				</clipPath>
				<path style="opacity:0.16;clip-path:url(#XMLID_00000160903729622923737970000010887938149978728115_);" d="M223.18,305.868
					c0,0,3.295-0.795,4.658-0.341c1.363,0.454,3.181,1.932,3.181,1.932l0.91-3.815c0,0-2.16-1.184-4.432-0.73
					C225.225,303.369,223.18,305.868,223.18,305.868z"/>
				
					<use xlink:href="#XMLID_29_"  style="overflow:visible;fill:none;stroke:#263238;stroke-linecap:round;stroke-linejoin:round;stroke-miterlimit:10;"/>
			</g>
			<polyline style="fill:none;stroke:#263238;stroke-linecap:round;stroke-linejoin:round;stroke-miterlimit:10;" points="
				201.216,304.838 207.086,328.686 193.878,298.601 			"/>
		</g>
		<g>
			<g>
				<defs>
					<path id="XMLID_28_" d="M239.893,423.059h42.774c0,0-11.792-14.988-11.792-20.124c0-5.137,16.195-70.866,16.929-75.636
						c0.734-4.77-2.201-8.072-8.072-8.439c-5.87-0.367-28.251-5.137-29.352-8.806c0,0-8.439,29.719-11.374,49.898
						C236.489,377.257,239.098,413.175,239.893,423.059z"/>
				</defs>
				<use xlink:href="#XMLID_28_"  style="overflow:visible;fill:#C6FF00;"/>
				<clipPath id="XMLID_00000118395975313241583260000006737940191121989522_">
					<use xlink:href="#XMLID_28_"  style="overflow:visible;"/>
				</clipPath>
				<path style="opacity:0.16;clip-path:url(#XMLID_00000118395975313241583260000006737940191121989522_);" d="M279.732,318.86
					c-4.811-0.301-20.704-3.559-26.892-6.744l2.245,5.199c0,0,5.593,3.196,13.051,4.528c7.458,1.332,14.383,1.065,18.911,7.724
					c0.074,0.109,0.148,0.223,0.222,0.335c0.283-1.282,0.469-2.184,0.534-2.603C288.537,322.529,285.602,319.227,279.732,318.86z"/>
				
					<use xlink:href="#XMLID_28_"  style="overflow:visible;fill:none;stroke:#263238;stroke-linecap:round;stroke-linejoin:round;stroke-miterlimit:10;"/>
			</g>
			<g>
				<defs>
					<path id="XMLID_27_" d="M250.38,310.055c0,0-11.315,36.036-11.374,49.898c0,0,16.08-19.47,18.186-33.153
						C259.297,313.117,250.38,310.055,250.38,310.055z"/>
				</defs>
				<use xlink:href="#XMLID_27_"  style="overflow:visible;fill:#C6FF00;"/>
				<clipPath id="XMLID_00000068647765973320485260000010107881049369751966_">
					<use xlink:href="#XMLID_27_"  style="overflow:visible;"/>
				</clipPath>
				<path style="opacity:0.16;clip-path:url(#XMLID_00000068647765973320485260000010107881049369751966_);" d="M248.426,314.652
					c0,0,5.061-0.533,8.789,4.262c0,0-2.219-6.531-6.836-8.859L248.426,314.652z"/>
				
					<use xlink:href="#XMLID_27_"  style="overflow:visible;fill:none;stroke:#263238;stroke-linecap:round;stroke-linejoin:round;stroke-miterlimit:10;"/>
			</g>
		</g>
		<g>
			<g>
				<defs>
					<path id="XMLID_26_" d="M371.235,416.287c0,0,8.287,0.341,13.714,1.124c5.426,0.782,10.917,0.866,10.917,0.866
						s-2.967-6.054-6.193-7.762c-3.226-1.707-9.006-4.778-13.862-4.098c-4.856,0.68-11.79,5.539-11.233,7.142
						C365.135,415.16,367.753,415.825,371.235,416.287z"/>
				</defs>
				<use xlink:href="#XMLID_26_"  style="overflow:visible;fill:#FFFFFF;"/>
				<clipPath id="XMLID_00000054969424741791759480000014941731064672610232_">
					<use xlink:href="#XMLID_26_"  style="overflow:visible;"/>
				</clipPath>
				<path style="clip-path:url(#XMLID_00000054969424741791759480000014941731064672610232_);fill:#C6FF00;" d="M371.235,416.287
					c0,0,8.287,0.341,13.714,1.124c5.426,0.782,10.917,0.866,10.917,0.866s-2.967-6.054-6.193-7.762
					c-3.226-1.707-9.006-4.778-13.862-4.098c-4.856,0.68-11.79,5.539-11.233,7.142C365.135,415.16,367.753,415.825,371.235,416.287z
					"/>
				<path style="opacity:0.5;clip-path:url(#XMLID_00000054969424741791759480000014941731064672610232_);fill:#FFFFFF;" d="
					M371.235,416.287c0,0,8.287,0.341,13.714,1.124c5.426,0.782,10.917,0.866,10.917,0.866s-2.967-6.054-6.193-7.762
					c-3.226-1.707-9.006-4.778-13.862-4.098c-4.856,0.68-11.79,5.539-11.233,7.142C365.135,415.16,367.753,415.825,371.235,416.287z
					"/>
				
					<use xlink:href="#XMLID_26_"  style="overflow:visible;fill:none;stroke:#263238;stroke-linecap:round;stroke-linejoin:round;stroke-miterlimit:10;"/>
			</g>
			<g>
				<defs>
					<path id="XMLID_25_" d="M384.959,413.814c0,0,6.567-3.412,8.215-3.369c1.647,0.042,12.54,7.428,11.998,8.608
						c-0.542,1.18-2.612,1.665-3.443,1.275c-1.206-0.565-8.544-3.687-8.544-3.687l-4.803,1.127L384.959,413.814z"/>
				</defs>
				<use xlink:href="#XMLID_25_"  style="overflow:visible;fill:#FFFFFF;"/>
				<clipPath id="XMLID_00000080889836016978251620000013570253909555457192_">
					<use xlink:href="#XMLID_25_"  style="overflow:visible;"/>
				</clipPath>
				<path style="clip-path:url(#XMLID_00000080889836016978251620000013570253909555457192_);fill:#C6FF00;" d="M384.959,413.814
					c0,0,6.567-3.412,8.215-3.369c1.647,0.042,12.54,7.428,11.998,8.608c-0.542,1.18-3.124,2.136-3.443,1.275
					c-0.319-0.861-8.544-3.687-8.544-3.687l-4.803,1.127L384.959,413.814z"/>
				<path style="opacity:0.5;clip-path:url(#XMLID_00000080889836016978251620000013570253909555457192_);fill:#FFFFFF;" d="
					M384.959,413.814c0,0,6.567-3.412,8.215-3.369c1.647,0.042,12.54,7.428,11.998,8.608c-0.542,1.18-3.124,2.136-3.443,1.275
					c-0.319-0.861-8.544-3.687-8.544-3.687l-4.803,1.127L384.959,413.814z"/>
				
					<use xlink:href="#XMLID_25_"  style="overflow:visible;fill:none;stroke:#263238;stroke-linecap:round;stroke-linejoin:round;stroke-miterlimit:10;"/>
			</g>
			<g>
				<defs>
					<path id="XMLID_24_" d="M380.308,408.199c0,0,8.764-0.284,10.503,0.604c1.739,0.888,9.599,14.356,8.416,15.34
						c-1.183,0.983-4.432,0.684-4.332-0.4c0.1-1.083-7.243-8.314-7.243-8.314l-5.71-1.255L380.308,408.199z"/>
				</defs>
				<use xlink:href="#XMLID_24_"  style="overflow:visible;fill:#FFFFFF;"/>
				<clipPath id="XMLID_00000013892441477590667930000010887449746162187695_">
					<use xlink:href="#XMLID_24_"  style="overflow:visible;"/>
				</clipPath>
				<path style="clip-path:url(#XMLID_00000013892441477590667930000010887449746162187695_);fill:#C6FF00;" d="M380.308,408.199
					c0,0,8.764-0.284,10.503,0.604c1.739,0.888,9.599,14.356,8.416,15.34c-1.183,0.983-4.432,0.684-4.332-0.4
					c0.1-1.083-7.243-8.314-7.243-8.314l-5.71-1.255L380.308,408.199z"/>
				<path style="opacity:0.5;clip-path:url(#XMLID_00000013892441477590667930000010887449746162187695_);fill:#FFFFFF;" d="
					M380.308,408.199c0,0,8.764-0.284,10.503,0.604c1.739,0.888,9.599,14.356,8.416,15.34c-1.183,0.983-4.432,0.684-4.332-0.4
					c0.1-1.083-7.243-8.314-7.243-8.314l-5.71-1.255L380.308,408.199z"/>
				
					<use xlink:href="#XMLID_24_"  style="overflow:visible;fill:none;stroke:#263238;stroke-linecap:round;stroke-linejoin:round;stroke-miterlimit:10;"/>
			</g>
			<g>
				<defs>
					<path id="XMLID_23_" d="M375.125,406.391c0,0,8.869-0.287,10.629,0.612c1.759,0.899,9.714,14.528,8.517,15.523
						c-1.197,0.995-4.485,0.692-4.384-0.404c0.101-1.096-7.33-8.414-7.33-8.414l-5.778-1.27L375.125,406.391z"/>
				</defs>
				<use xlink:href="#XMLID_23_"  style="overflow:visible;fill:#FFFFFF;"/>
				<clipPath id="XMLID_00000136391181727787954870000014655491490696081070_">
					<use xlink:href="#XMLID_23_"  style="overflow:visible;"/>
				</clipPath>
				<path style="clip-path:url(#XMLID_00000136391181727787954870000014655491490696081070_);fill:#C6FF00;" d="M375.125,406.391
					c0,0,8.869-0.287,10.629,0.612c1.759,0.899,9.714,14.528,8.517,15.523c-1.197,0.995-4.485,0.692-4.384-0.404
					c0.101-1.096-7.33-8.414-7.33-8.414l-5.778-1.27L375.125,406.391z"/>
				<path style="opacity:0.5;clip-path:url(#XMLID_00000136391181727787954870000014655491490696081070_);fill:#FFFFFF;" d="
					M375.125,406.391c0,0,8.869-0.287,10.629,0.612c1.759,0.899,9.714,14.528,8.517,15.523c-1.197,0.995-4.485,0.692-4.384-0.404
					c0.101-1.096-7.33-8.414-7.33-8.414l-5.778-1.27L375.125,406.391z"/>
				
					<use xlink:href="#XMLID_23_"  style="overflow:visible;fill:none;stroke:#263238;stroke-linecap:round;stroke-linejoin:round;stroke-miterlimit:10;"/>
			</g>
			<g>
				<g>
					<defs>
						<path id="XMLID_22_" d="M274.27,355.569c6.417,9.89,19.306,34.947,23.073,37.772c5.87,4.403,45.109,15.081,48.892,18.009
							c3.783,2.928,3.514,5.851,7.1,6.918c3.586,1.068,17.006,4.147,22.121,4.619c5.115,0.472,2.827-2.687,2.827-2.687l-8.732-5.964
							l7.613-1.877c0,0,7.628,9.178,9.056,9.678s3.955-0.021,3.788-1.125c-0.275-1.814-8.416-16.62-11.305-17.254
							c-2.889-0.635-20.431,1.801-20.431,1.801s-36.786-24.812-37.447-25.693c0,0-2.201-6.237-4.036-8.805s-2.935-1.835-2.935-1.835
							s0.734-3.302-0.367-4.403c-1.101-1.101-5.87-5.87-5.87-5.87l-0.206,0.282c-0.965-2.015-1.99-4.285-3.096-6.886
							c-3.075-7.225-13.942-27.517-15.777-30.453c-1.363-2.181-12.852-3.754-18.668-4.418"/>
					</defs>
					<use xlink:href="#XMLID_22_"  style="overflow:visible;fill:#C6FF00;"/>
					<clipPath id="XMLID_00000127004202588918006270000002354443221378105239_">
						<use xlink:href="#XMLID_22_"  style="overflow:visible;"/>
					</clipPath>
					<path style="opacity:0.16;clip-path:url(#XMLID_00000127004202588918006270000002354443221378105239_);" d="M299.832,356.202
						c4.794,4.262,3.196,4.262,2.131,7.991c-1.065,3.729,0.799-1.332,5.327-1.065c4.528,0.266,3.196,6.126,2.663,7.191
						c-0.533,1.065,5.593,2.397,4.528,4.794c-1.065,2.397-7.191,5.86-10.654,9.322c-3.463,3.462,9.056-5.593,13.317-5.86
						c1.295-0.081,2.367,0.083,3.264,0.06c-0.724-1.916-2.27-5.786-3.62-7.676c-1.835-2.568-2.935-1.835-2.935-1.835
						s0.734-3.302-0.367-4.403c-1.101-1.101-5.87-5.87-5.87-5.87l-0.206,0.282c-0.965-2.015-1.99-4.285-3.096-6.886
						c-3.075-7.225-13.942-27.517-15.777-30.453c-1.363-2.181-12.852-3.754-18.668-4.418l0.534,4.631l0.13,0.102
						c0,0,7.191,1.332,9.589,1.598c2.397,0.266,5.327,2.397,5.061,3.995c-0.266,1.598-7.191,8.789-5.061,9.322
						c2.131,0.533,4.528-5.327,6.925-4.528C289.444,333.296,295.037,351.941,299.832,356.202z"/>
					
						<use xlink:href="#XMLID_22_"  style="overflow:visible;fill:none;stroke:#263238;stroke-linecap:round;stroke-linejoin:round;stroke-miterlimit:10;"/>
				</g>
				<g>
					<path style="fill:none;stroke:#263238;stroke-linecap:round;stroke-linejoin:round;stroke-miterlimit:10;" d="M274.371,341.978
						c-0.274,0.897-0.505,1.806-0.682,2.723"/>
					<path style="fill:none;stroke:#263238;stroke-linecap:round;stroke-linejoin:round;stroke-miterlimit:10;" d="M284.086,325.447
						c0,0-4.687,5.113-7.881,11.853"/>
					<path style="fill:none;stroke:#263238;stroke-linecap:round;stroke-linejoin:round;stroke-miterlimit:10;" d="M298.776,382.232
						c2.703-3.951,6.979-9.072,11.745-10.522"/>
					<path style="fill:none;stroke:#263238;stroke-linecap:round;stroke-linejoin:round;stroke-miterlimit:10;" d="M295.785,387.147
						c0,0,0.481-0.937,1.342-2.355"/>
					<path style="fill:none;stroke:#263238;stroke-linecap:round;stroke-linejoin:round;stroke-miterlimit:10;" d="M295.785,380.831
						c0,0,4.912-12.28,9.824-15.438c4.912-3.158,2.105,3.158,2.105,3.158"/>
				</g>
				<g>
					<defs>
						<path id="XMLID_21_" d="M346.235,411.349c3.783,2.928,3.514,5.851,7.1,6.918c3.586,1.068,17.006,4.147,22.121,4.619
							c5.115,0.472,2.827-2.687,2.827-2.687l-8.732-5.964l7.613-1.877c0,0,7.628,9.178,9.056,9.678s4.147,0.682,3.788-1.125
							c-0.697-3.507-8.416-16.62-11.305-17.254c-2.889-0.635-20.431,1.801-20.431,1.801s-33.513-23.026-37.18-25.49
							c-14.233,1.369-21.021,8.826-23.846,13.293c0.032,0.025,0.067,0.056,0.098,0.079
							C303.213,397.743,342.452,408.421,346.235,411.349z"/>
					</defs>
					<use xlink:href="#XMLID_21_"  style="overflow:visible;fill:#FFFFFF;"/>
					<clipPath id="XMLID_00000092415289108322815700000008036727413322151565_">
						<use xlink:href="#XMLID_21_"  style="overflow:visible;"/>
					</clipPath>
					<path style="clip-path:url(#XMLID_00000092415289108322815700000008036727413322151565_);fill:#C6FF00;" d="M390.007,420.912
						c-1.813-4.454-8.416-16.62-11.305-17.254c-2.889-0.635-20.431,1.801-20.431,1.801s-33.513-23.026-37.18-25.49
						c-4.267,0.41-7.853,1.374-10.875,2.635c5.291,2.983,40.554,22.975,44.99,23.887c4.725,0.971,20.475-1.589,23.246,0.271
						c1.762,1.183,6.972,9.493,10.536,15.391C390.02,421.978,390.373,421.811,390.007,420.912z"/>
					<path style="opacity:0.5;clip-path:url(#XMLID_00000092415289108322815700000008036727413322151565_);fill:#FFFFFF;" d="
						M390.007,420.912c-2.836-6.371-8.416-16.62-11.305-17.254c-2.889-0.635-20.431,1.801-20.431,1.801s-33.513-23.026-37.18-25.49
						c-4.267,0.41-7.853,1.374-10.875,2.635c5.291,2.983,40.554,22.975,44.99,23.887c4.725,0.971,20.475-1.589,23.246,0.271
						c1.762,1.183,6.972,9.493,10.536,15.391C390.02,421.978,390.401,421.799,390.007,420.912z"/>
					
						<use xlink:href="#XMLID_21_"  style="overflow:visible;fill:none;stroke:#263238;stroke-linecap:round;stroke-linejoin:round;stroke-miterlimit:10;"/>
				</g>
			</g>
		</g>
		<g>
			<g>
				<defs>
					<path id="XMLID_20_" d="M257.849,236.73l-30.118,12.566c0,0-0.308,7.772-3.867,15.309s-1.483,21.782,1.936,29.47
						c3.419,7.688,18.486,4.682,24.035,3.724c5.55-0.958,10.939-3.185,10.939-3.185s4.919,2.214,9.752-1.36
						C270.526,293.254,254.373,247.995,257.849,236.73z"/>
				</defs>
				<use xlink:href="#XMLID_20_"  style="overflow:visible;fill:#FFFFFF;"/>
				<clipPath id="XMLID_00000091708455403039131960000011497756788737620371_">
					<use xlink:href="#XMLID_20_"  style="overflow:visible;"/>
				</clipPath>
				<path style="clip-path:url(#XMLID_00000091708455403039131960000011497756788737620371_);fill:#C6FF00;" d="M257.849,236.73
					l-30.118,12.566c0,0-0.308,7.772-3.867,15.309s-1.483,21.782,1.936,29.47c0.58,1.305,1.502,2.296,2.65,3.047v-0.582
					c0,0-5.593-13.85-4.528-21.841c1.065-7.99,5.593-11.986,6.126-17.046c0.533-5.061,0.266-7.458,10.388-11.187
					c10.121-3.729,14.383-7.191,15.448-3.463c1.065,3.729,5.327,28.233,8.257,34.093c2.93,5.86,2.663,11.986-1.864,14.649
					c-3.65,2.147-9.202,4.983-14.567,6.422c0.801-0.136,1.522-0.265,2.125-0.369c5.55-0.958,10.939-3.185,10.939-3.185
					s4.919,2.214,9.752-1.36C270.526,293.254,254.373,247.995,257.849,236.73z"/>
				<path style="opacity:0.5;clip-path:url(#XMLID_00000091708455403039131960000011497756788737620371_);fill:#FFFFFF;" d="
					M257.849,236.73l-30.118,12.566c0,0-0.308,7.772-3.867,15.309s-1.483,21.782,1.936,29.47c0.58,1.305,1.502,2.296,2.65,3.047
					v-0.582c0,0-5.593-13.85-4.528-21.841c1.065-7.99,5.593-11.986,6.126-17.046c0.533-5.061,0.266-7.458,10.388-11.187
					c10.121-3.729,14.383-7.191,15.448-3.463c1.065,3.729,5.327,28.233,8.257,34.093c2.93,5.86,2.663,11.986-1.864,14.649
					c-3.65,2.147-9.202,4.983-14.567,6.422c0.801-0.136,1.522-0.265,2.125-0.369c5.55-0.958,10.939-3.185,10.939-3.185
					s4.919,2.214,9.752-1.36C270.526,293.254,254.373,247.995,257.849,236.73z"/>
				
					<use xlink:href="#XMLID_20_"  style="overflow:visible;fill:none;stroke:#263238;stroke-linecap:round;stroke-linejoin:round;stroke-miterlimit:10;"/>
			</g>
			<path style="fill:none;stroke:#263238;stroke-linecap:round;stroke-linejoin:round;stroke-miterlimit:10;" d="M242.628,256.441
				c0,0,0.157,3.214-0.644,5.243c-0.801,2.029-8.352,9.859-8.122,10.701c0.231,0.842,0.907,3.58,2.247,3.846"/>
			<path style="fill:none;stroke:#263238;stroke-linecap:round;stroke-linejoin:round;stroke-miterlimit:10;" d="M250.978,263.472
				c1.052-2.097,4.504-0.048,4.455,4.678"/>
			<path style="fill:none;stroke:#263238;stroke-linecap:round;stroke-linejoin:round;stroke-miterlimit:10;" d="M233.905,257.294
				c0,0,2.94-1.298,5.561,3.468"/>
			<path style="fill:none;stroke:#263238;stroke-width:0.5;stroke-linecap:round;stroke-linejoin:round;stroke-miterlimit:10;" d="
				M246.816,270.402c0,0,4.953-0.031,9.132,3.826"/>
			<path style="fill:none;stroke:#263238;stroke-width:0.5;stroke-linecap:round;stroke-linejoin:round;stroke-miterlimit:10;" d="
				M230.355,264.147c0,0,3.291,0.455,5.091,1.409"/>
			<path style="fill:#263238;" d="M242.302,252.019c0,0-2.372-1.41-5.064-0.121c-2.692,1.289-4.342,2.715-4.16,1.058
				c0.182-1.657,3.346-3.468,4.291-3.709C238.314,249.007,242.571,248.327,242.302,252.019z"/>
			<path style="fill:#263238;" d="M249.841,248.274c0,0,4.514,3.476,6.494,8.459c1.98,4.983,3.581-0.467,1.977-3.736
				C256.709,249.729,252.195,246.253,249.841,248.274z"/>
			<path style="fill:#C6FF00;stroke:#263238;stroke-linecap:round;stroke-linejoin:round;stroke-miterlimit:10;" d="M270.926,301.8
				c0,2.33-1.314,4.219-2.935,4.219c-1.621,0-2.935-1.889-2.935-4.219c0-2.33,1.314-8.255,2.935-8.255
				C269.612,293.544,270.926,299.469,270.926,301.8z"/>
			<path style="fill:#263238;" d="M251.261,262.562c-0.108,0.288-0.201,0.602-0.269,0.94c-0.294,1.48-0.583,4.572,0.052,4.698
				c0.634,0.126,1.951-2.762,2.245-4.241c0.061-0.306,0.092-0.6,0.105-0.882C252.656,262.848,251.913,262.682,251.261,262.562z"/>
			<path style="fill:#263238;" d="M234.205,257.022c-0.086,0.249-0.163,0.512-0.219,0.795c-0.294,1.48-0.285,4.731,0.349,4.857
				c0.634,0.126,1.654-2.921,1.948-4.401c0.076-0.383,0.113-0.753,0.116-1.094C235.589,256.962,234.847,256.943,234.205,257.022z"/>
			<path style="fill:none;stroke:#263238;stroke-width:0.75;stroke-linecap:round;stroke-linejoin:round;stroke-miterlimit:10;" d="
				M251.022,263.516l0.977-1.861c0,0,2.58,0.43,4.085,2.365"/>
			<path style="fill:none;stroke:#263238;stroke-width:0.75;stroke-linecap:round;stroke-linejoin:round;stroke-miterlimit:10;" d="
				M234.205,257.022l1.024-1.172c0,0,0.43-0.215,2.795,0.86"/>
			<path style="fill:none;stroke:#263238;stroke-linecap:round;stroke-linejoin:round;stroke-miterlimit:10;" d="M230.408,284.119
				c0,0,1.685-3.089,3.931-3.089c2.246,0,3.931,5.054,3.931,5.054"/>
		</g>
	</g>
</g>
<g id="Mug">
	<g>
		<g>
			<defs>
				<path id="XMLID_17_" d="M158.041,417.382c-2.526,0-5.252-1.051-6.302-1.501c-1.106-0.474-1.618-1.755-1.144-2.861
					c0.475-1.105,1.756-1.617,2.861-1.144c2.013,0.858,4.594,1.382,5.29,1.085c1.261-1.423,3.217-10.039,0.691-14.143
					c-0.563-0.916-1.094-1.084-1.444-1.132c-1.43-0.197-3.553,1.277-4.304,1.978c-0.88,0.82-2.258,0.774-3.079-0.106
					c-0.821-0.88-0.774-2.259,0.106-3.08c0.4-0.373,4.015-3.631,7.859-3.11c1.305,0.176,3.159,0.869,4.573,3.166
					c3.718,6.042,1.168,17.558-1.68,19.837C160.536,417.115,159.314,417.382,158.041,417.382z"/>
			</defs>
			<use xlink:href="#XMLID_17_"  style="overflow:visible;fill:#FFFFFF;"/>
			<clipPath id="XMLID_00000170280564535911295650000003613065557334254494_">
				<use xlink:href="#XMLID_17_"  style="overflow:visible;"/>
			</clipPath>
			<path style="clip-path:url(#XMLID_00000170280564535911295650000003613065557334254494_);fill:#C6FF00;" d="M160.934,398.157
				c-0.919-1.767-2.124-2.3-2.972-2.436c-2.499-0.401-4.849,2.106-5.108,2.392c-0.5,0.552-0.56,1.419-0.217,2.084
				c0.381-0.077,0.747-0.25,1.052-0.535c0.75-0.7,2.874-2.174,4.304-1.978c0.35,0.048,0.881,0.216,1.444,1.132
				c2.526,4.104,0.57,12.72-0.691,14.143c-0.695,0.297-3.277-0.227-5.29-1.085c-0.254-0.109-0.518-0.16-0.779-0.169
				c0.06,0.572,0.362,1.092,0.842,1.335c0.683,0.346,2.455,1.155,4.096,1.155c0.827,0,1.622-0.205,2.227-0.779
				C161.693,411.665,163.35,402.805,160.934,398.157z"/>
			<path style="opacity:0.5;clip-path:url(#XMLID_00000170280564535911295650000003613065557334254494_);fill:#FFFFFF;" d="
				M160.934,398.157c-0.919-1.767-2.124-2.3-2.972-2.436c-2.499-0.401-4.849,2.106-5.108,2.392c-0.5,0.552-0.56,1.419-0.217,2.084
				c0.381-0.077,0.747-0.25,1.052-0.535c0.75-0.7,2.874-2.174,4.304-1.978c0.35,0.048,0.881,0.216,1.444,1.132
				c2.526,4.104,0.57,12.72-0.691,14.143c-0.695,0.297-3.277-0.227-5.29-1.085c-0.254-0.109-0.518-0.16-0.779-0.169
				c0.06,0.572,0.362,1.092,0.842,1.335c0.683,0.346,2.455,1.155,4.096,1.155c0.827,0,1.622-0.205,2.227-0.779
				C161.693,411.665,163.35,402.805,160.934,398.157z"/>
			
				<use xlink:href="#XMLID_17_"  style="overflow:visible;fill:none;stroke:#263238;stroke-linecap:round;stroke-linejoin:round;stroke-miterlimit:10;"/>
		</g>
		<g>
			<defs>
				<rect id="XMLID_16_" x="130.131" y="391.58" width="24.052" height="31.924"/>
			</defs>
			<use xlink:href="#XMLID_16_"  style="overflow:visible;fill:#FFFFFF;"/>
			<clipPath id="XMLID_00000051372379909093786960000007572937017586569386_">
				<use xlink:href="#XMLID_16_"  style="overflow:visible;"/>
			</clipPath>
			
				<rect x="130.131" y="391.58" style="clip-path:url(#XMLID_00000051372379909093786960000007572937017586569386_);fill:#C6FF00;" width="9.852" height="31.924"/>
			
				<rect x="130.131" y="391.58" style="opacity:0.5;clip-path:url(#XMLID_00000051372379909093786960000007572937017586569386_);fill:#FFFFFF;" width="9.852" height="31.924"/>
			
				<use xlink:href="#XMLID_16_"  style="overflow:visible;fill:none;stroke:#263238;stroke-linecap:round;stroke-linejoin:round;stroke-miterlimit:10;"/>
		</g>
	</g>
</g>
<g id="Device">
	<g>
		<path style="fill:#263238;stroke:#263238;stroke-linecap:round;stroke-linejoin:round;stroke-miterlimit:10;" d="M286.336,423.059
			H183.605l-3.359-56.478c-0.393-2.343,1.414-4.478,3.79-4.478h101.869c2.376,0,4.182,2.135,3.79,4.478L286.336,423.059z"/>
		<g>
			<path style="fill:none;stroke:#FFFFFF;stroke-linecap:round;stroke-linejoin:round;stroke-miterlimit:10;" d="M188.658,363.455
				h96.5c2.341,0,4.121,2.067,3.734,4.335"/>
			<path style="fill:none;stroke:#FFFFFF;stroke-linecap:round;stroke-linejoin:round;stroke-miterlimit:10;" d="M181.005,366.899
				c0.14-1.891,1.748-3.445,3.777-3.445"/>
		</g>
		
			<rect x="183.168" y="417.556" style="fill:#FFFFFF;stroke:#263238;stroke-linecap:round;stroke-linejoin:round;stroke-miterlimit:10;" width="103.605" height="5.503"/>
		
			<ellipse style="fill:#FFFFFF;stroke:#263238;stroke-linecap:round;stroke-linejoin:round;stroke-miterlimit:10;" cx="234.603" cy="392.795" rx="7.338" ry="4.403"/>
	</g>
</g>
<g id="Table">
	<rect x="57.167" y="422.412" style="fill:#263238;" width="385.858" height="9.372"/>
</g>
<g id="Pop_Up_Window">
	<g>
		<path style="fill:#C6FF00;" d="M342.977,204.171H157.346c-6.258,0-11.331-5.073-11.331-11.331V86.331
			c0-6.258,5.073-11.331,11.331-11.331h185.631c6.258,0,11.331,5.073,11.331,11.331V192.84
			C354.308,199.098,349.235,204.171,342.977,204.171z"/>
		<g>
			
				<ellipse transform="matrix(0.9873 -0.1587 0.1587 0.9873 -15.6719 41.1938)" style="fill:#263238;" cx="250.162" cy="118.751" rx="30.883" ry="30.883"/>
			<g>
				<path style="fill:#FFFFFF;" d="M249.925,124.455l-10.283,13.209c-0.89,1.212-1.979,1.818-3.266,1.818
					c-0.928,0-1.729-0.317-2.4-0.952c-0.672-0.634-1.009-1.425-1.009-2.372c0-0.89,0.341-1.799,1.023-2.727l11.731-14.516
					L234.7,104.4c-0.53-0.739-0.795-1.524-0.795-2.358c0-1.041,0.388-1.946,1.164-2.713c0.776-0.767,1.676-1.151,2.699-1.151
					c1.25,0,2.319,0.616,3.21,1.847l9.942,13.096l10.027-12.869c1.004-1.382,2.149-2.074,3.437-2.074
					c0.891,0,1.657,0.327,2.302,0.98c0.644,0.653,0.966,1.425,0.966,2.315c0,0.738-0.256,1.448-0.767,2.13l-11.762,15.056
					l11.363,14.999c0.569,0.758,0.853,1.543,0.853,2.358c0,1.023-0.397,1.899-1.194,2.628c-0.795,0.728-1.703,1.093-2.725,1.093
					c-1.288,0-2.368-0.605-3.24-1.818L249.925,124.455z"/>
			</g>
		</g>
		<path style="fill:#FFFFFF;" d="M309.032,181.803H191.291c-4.975,0-9.007-4.033-9.007-9.008l0,0c0-4.975,4.033-9.007,9.007-9.007
			h117.741c4.975,0,9.007,4.033,9.007,9.007l0,0C318.04,177.77,314.007,181.803,309.032,181.803z"/>
		<g>
			<path d="M207.42,175.697c-0.162,0-0.304-0.06-0.424-0.181c-0.12-0.12-0.181-0.267-0.181-0.442c0-0.132,0.039-0.268,0.118-0.406
				l0.893-1.399l-1.832,0.054c-0.199,0-0.352-0.06-0.46-0.181c-0.108-0.12-0.163-0.265-0.163-0.433c0-0.169,0.055-0.313,0.163-0.433
				c0.108-0.12,0.262-0.18,0.46-0.18l1.805,0.054l-0.848-1.345c-0.09-0.163-0.136-0.31-0.136-0.442c0-0.181,0.061-0.331,0.185-0.451
				c0.123-0.12,0.267-0.18,0.429-0.18c0.229,0,0.406,0.115,0.532,0.343l0.876,1.571l0.839-1.508
				c0.163-0.271,0.365-0.406,0.606-0.406c0.162,0,0.302,0.058,0.419,0.176c0.118,0.117,0.176,0.263,0.176,0.438
				c0,0.133-0.039,0.265-0.117,0.397l-0.885,1.408l1.833-0.054c0.199,0,0.352,0.06,0.461,0.18c0.108,0.12,0.163,0.265,0.163,0.433
				c0,0.169-0.055,0.313-0.163,0.433c-0.108,0.12-0.262,0.181-0.461,0.181l-1.85-0.054l0.821,1.282
				c0.103,0.18,0.154,0.349,0.154,0.506c0,0.18-0.058,0.329-0.176,0.446c-0.117,0.118-0.254,0.176-0.411,0.176
				c-0.24,0-0.433-0.129-0.577-0.388l-0.831-1.471l-0.831,1.471C207.863,175.561,207.667,175.697,207.42,175.697z"/>
			<path d="M216.601,175.697c-0.163,0-0.304-0.06-0.425-0.181c-0.121-0.12-0.181-0.267-0.181-0.442c0-0.132,0.04-0.268,0.118-0.406
				l0.894-1.399l-1.833,0.054c-0.199,0-0.352-0.06-0.46-0.181c-0.108-0.12-0.162-0.265-0.162-0.433c0-0.169,0.054-0.313,0.162-0.433
				s0.262-0.18,0.46-0.18l1.805,0.054l-0.848-1.345c-0.09-0.163-0.136-0.31-0.136-0.442c0-0.181,0.062-0.331,0.186-0.451
				c0.123-0.12,0.266-0.18,0.428-0.18c0.229,0,0.407,0.115,0.533,0.343l0.876,1.571l0.839-1.508
				c0.163-0.271,0.365-0.406,0.605-0.406c0.163,0,0.302,0.058,0.42,0.176c0.118,0.117,0.176,0.263,0.176,0.438
				c0,0.133-0.04,0.265-0.118,0.397l-0.884,1.408l1.833-0.054c0.199,0,0.352,0.06,0.461,0.18c0.108,0.12,0.162,0.265,0.162,0.433
				c0,0.169-0.054,0.313-0.162,0.433c-0.108,0.12-0.262,0.181-0.461,0.181l-1.85-0.054l0.821,1.282
				c0.103,0.18,0.154,0.349,0.154,0.506c0,0.18-0.058,0.329-0.176,0.446c-0.118,0.118-0.254,0.176-0.411,0.176
				c-0.241,0-0.433-0.129-0.578-0.388l-0.83-1.471l-0.831,1.471C217.042,175.561,216.848,175.697,216.601,175.697z"/>
			<path d="M225.781,175.697c-0.163,0-0.304-0.06-0.425-0.181c-0.121-0.12-0.181-0.267-0.181-0.442c0-0.132,0.039-0.268,0.118-0.406
				l0.894-1.399l-1.833,0.054c-0.199,0-0.352-0.06-0.461-0.181c-0.108-0.12-0.162-0.265-0.162-0.433
				c0-0.169,0.054-0.313,0.162-0.433s0.262-0.18,0.461-0.18l1.805,0.054l-0.849-1.345c-0.09-0.163-0.136-0.31-0.136-0.442
				c0-0.181,0.062-0.331,0.185-0.451c0.123-0.12,0.267-0.18,0.429-0.18c0.229,0,0.407,0.115,0.533,0.343l0.876,1.571l0.839-1.508
				c0.163-0.271,0.364-0.406,0.605-0.406c0.163,0,0.302,0.058,0.42,0.176c0.118,0.117,0.176,0.263,0.176,0.438
				c0,0.133-0.04,0.265-0.118,0.397l-0.884,1.408l1.833-0.054c0.199,0,0.352,0.06,0.46,0.18c0.108,0.12,0.162,0.265,0.162,0.433
				c0,0.169-0.054,0.313-0.162,0.433c-0.108,0.12-0.262,0.181-0.46,0.181l-1.85-0.054l0.821,1.282
				c0.103,0.18,0.153,0.349,0.153,0.506c0,0.18-0.058,0.329-0.176,0.446c-0.118,0.118-0.254,0.176-0.41,0.176
				c-0.241,0-0.433-0.129-0.578-0.388l-0.83-1.471l-0.831,1.471C226.222,175.561,226.027,175.697,225.781,175.697z"/>
			<path d="M234.96,175.697c-0.162,0-0.304-0.06-0.424-0.181c-0.121-0.12-0.181-0.267-0.181-0.442c0-0.132,0.039-0.268,0.118-0.406
				l0.893-1.399l-1.832,0.054c-0.199,0-0.352-0.06-0.46-0.181c-0.108-0.12-0.163-0.265-0.163-0.433c0-0.169,0.055-0.313,0.163-0.433
				s0.262-0.18,0.46-0.18l1.805,0.054l-0.848-1.345c-0.09-0.163-0.136-0.31-0.136-0.442c0-0.181,0.061-0.331,0.184-0.451
				c0.123-0.12,0.267-0.18,0.43-0.18c0.229,0,0.406,0.115,0.532,0.343l0.876,1.571l0.839-1.508c0.163-0.271,0.364-0.406,0.605-0.406
				c0.162,0,0.302,0.058,0.419,0.176c0.118,0.117,0.176,0.263,0.176,0.438c0,0.133-0.039,0.265-0.117,0.397l-0.885,1.408
				l1.833-0.054c0.199,0,0.352,0.06,0.46,0.18s0.163,0.265,0.163,0.433c0,0.169-0.055,0.313-0.163,0.433
				c-0.108,0.12-0.262,0.181-0.46,0.181l-1.851-0.054l0.821,1.282c0.103,0.18,0.154,0.349,0.154,0.506
				c0,0.18-0.058,0.329-0.176,0.446c-0.117,0.118-0.254,0.176-0.411,0.176c-0.24,0-0.433-0.129-0.577-0.388l-0.831-1.471
				l-0.831,1.471C235.403,175.561,235.207,175.697,234.96,175.697z"/>
			<path d="M244.141,175.697c-0.163,0-0.304-0.06-0.425-0.181c-0.12-0.12-0.181-0.267-0.181-0.442c0-0.132,0.04-0.268,0.118-0.406
				l0.894-1.399l-1.833,0.054c-0.199,0-0.352-0.06-0.461-0.181c-0.108-0.12-0.162-0.265-0.162-0.433
				c0-0.169,0.054-0.313,0.162-0.433c0.108-0.12,0.262-0.18,0.461-0.18l1.805,0.054l-0.849-1.345
				c-0.09-0.163-0.136-0.31-0.136-0.442c0-0.181,0.062-0.331,0.186-0.451c0.123-0.12,0.266-0.18,0.428-0.18
				c0.229,0,0.407,0.115,0.533,0.343l0.876,1.571l0.839-1.508c0.163-0.271,0.364-0.406,0.605-0.406c0.163,0,0.302,0.058,0.42,0.176
				c0.118,0.117,0.176,0.263,0.176,0.438c0,0.133-0.04,0.265-0.118,0.397l-0.884,1.408l1.833-0.054c0.199,0,0.352,0.06,0.46,0.18
				c0.108,0.12,0.162,0.265,0.162,0.433c0,0.169-0.054,0.313-0.162,0.433c-0.108,0.12-0.262,0.181-0.46,0.181l-1.851-0.054
				l0.821,1.282c0.103,0.18,0.154,0.349,0.154,0.506c0,0.18-0.058,0.329-0.176,0.446c-0.118,0.118-0.254,0.176-0.411,0.176
				c-0.241,0-0.433-0.129-0.578-0.388l-0.83-1.471l-0.831,1.471C244.583,175.561,244.388,175.697,244.141,175.697z"/>
			<path d="M253.321,175.697c-0.163,0-0.304-0.06-0.425-0.181c-0.121-0.12-0.18-0.267-0.18-0.442c0-0.132,0.039-0.268,0.117-0.406
				l0.894-1.399l-1.832,0.054c-0.2,0-0.353-0.06-0.461-0.181c-0.108-0.12-0.162-0.265-0.162-0.433c0-0.169,0.054-0.313,0.162-0.433
				c0.108-0.12,0.262-0.18,0.461-0.18l1.804,0.054l-0.848-1.345c-0.089-0.163-0.135-0.31-0.135-0.442
				c0-0.181,0.061-0.331,0.185-0.451c0.123-0.12,0.266-0.18,0.428-0.18c0.229,0,0.407,0.115,0.533,0.343l0.876,1.571l0.839-1.508
				c0.163-0.271,0.365-0.406,0.605-0.406c0.163,0,0.303,0.058,0.42,0.176c0.118,0.117,0.176,0.263,0.176,0.438
				c0,0.133-0.04,0.265-0.118,0.397l-0.884,1.408l1.833-0.054c0.199,0,0.352,0.06,0.461,0.18c0.108,0.12,0.162,0.265,0.162,0.433
				c0,0.169-0.054,0.313-0.162,0.433c-0.108,0.12-0.262,0.181-0.461,0.181l-1.85-0.054l0.821,1.282
				c0.103,0.18,0.154,0.349,0.154,0.506c0,0.18-0.058,0.329-0.176,0.446c-0.117,0.118-0.254,0.176-0.411,0.176
				c-0.241,0-0.433-0.129-0.577-0.388l-0.831-1.471l-0.83,1.471C253.764,175.561,253.568,175.697,253.321,175.697z"/>
			<path d="M262.501,175.697c-0.163,0-0.304-0.06-0.425-0.181c-0.121-0.12-0.18-0.267-0.18-0.442c0-0.132,0.039-0.268,0.117-0.406
				l0.894-1.399l-1.833,0.054c-0.198,0-0.351-0.06-0.46-0.181c-0.108-0.12-0.163-0.265-0.163-0.433c0-0.169,0.055-0.313,0.163-0.433
				s0.262-0.18,0.46-0.18l1.805,0.054l-0.849-1.345c-0.09-0.163-0.135-0.31-0.135-0.442c0-0.181,0.061-0.331,0.185-0.451
				c0.123-0.12,0.267-0.18,0.428-0.18c0.229,0,0.407,0.115,0.533,0.343l0.876,1.571l0.839-1.508
				c0.163-0.271,0.365-0.406,0.605-0.406c0.163,0,0.303,0.058,0.42,0.176c0.118,0.117,0.176,0.263,0.176,0.438
				c0,0.133-0.04,0.265-0.118,0.397l-0.884,1.408l1.833-0.054c0.199,0,0.352,0.06,0.46,0.18c0.108,0.12,0.162,0.265,0.162,0.433
				c0,0.169-0.054,0.313-0.162,0.433c-0.108,0.12-0.262,0.181-0.46,0.181l-1.85-0.054l0.821,1.282
				c0.103,0.18,0.153,0.349,0.153,0.506c0,0.18-0.058,0.329-0.176,0.446c-0.117,0.118-0.254,0.176-0.411,0.176
				c-0.241,0-0.433-0.129-0.577-0.388l-0.831-1.471l-0.831,1.471C262.944,175.561,262.748,175.697,262.501,175.697z"/>
			<path d="M271.682,175.697c-0.163,0-0.304-0.06-0.425-0.181c-0.121-0.12-0.18-0.267-0.18-0.442c0-0.132,0.039-0.268,0.117-0.406
				l0.894-1.399l-1.833,0.054c-0.198,0-0.351-0.06-0.46-0.181c-0.108-0.12-0.163-0.265-0.163-0.433c0-0.169,0.055-0.313,0.163-0.433
				c0.108-0.12,0.262-0.18,0.46-0.18l1.805,0.054l-0.848-1.345c-0.089-0.163-0.135-0.31-0.135-0.442
				c0-0.181,0.061-0.331,0.185-0.451c0.123-0.12,0.267-0.18,0.429-0.18c0.229,0,0.407,0.115,0.533,0.343l0.876,1.571l0.839-1.508
				c0.163-0.271,0.365-0.406,0.605-0.406c0.163,0,0.303,0.058,0.42,0.176c0.118,0.117,0.176,0.263,0.176,0.438
				c0,0.133-0.039,0.265-0.118,0.397l-0.884,1.408l1.833-0.054c0.199,0,0.352,0.06,0.461,0.18s0.162,0.265,0.162,0.433
				c0,0.169-0.054,0.313-0.162,0.433c-0.108,0.12-0.262,0.181-0.461,0.181l-1.85-0.054l0.821,1.282
				c0.103,0.18,0.154,0.349,0.154,0.506c0,0.18-0.058,0.329-0.176,0.446c-0.117,0.118-0.254,0.176-0.411,0.176
				c-0.241,0-0.433-0.129-0.577-0.388l-0.831-1.471l-0.831,1.471C272.124,175.561,271.928,175.697,271.682,175.697z"/>
			<path d="M280.862,175.697c-0.163,0-0.304-0.06-0.425-0.181c-0.12-0.12-0.18-0.267-0.18-0.442c0-0.132,0.039-0.268,0.117-0.406
				l0.894-1.399l-1.833,0.054c-0.198,0-0.351-0.06-0.46-0.181c-0.108-0.12-0.163-0.265-0.163-0.433c0-0.169,0.055-0.313,0.163-0.433
				c0.108-0.12,0.262-0.18,0.46-0.18l1.805,0.054l-0.849-1.345c-0.09-0.163-0.135-0.31-0.135-0.442c0-0.181,0.061-0.331,0.185-0.451
				c0.123-0.12,0.267-0.18,0.428-0.18c0.229,0,0.407,0.115,0.533,0.343l0.876,1.571l0.839-1.508
				c0.163-0.271,0.364-0.406,0.604-0.406c0.163,0,0.303,0.058,0.42,0.176c0.118,0.117,0.176,0.263,0.176,0.438
				c0,0.133-0.04,0.265-0.118,0.397l-0.884,1.408l1.833-0.054c0.199,0,0.352,0.06,0.46,0.18c0.108,0.12,0.162,0.265,0.162,0.433
				c0,0.169-0.054,0.313-0.162,0.433c-0.108,0.12-0.262,0.181-0.46,0.181l-1.85-0.054l0.821,1.282
				c0.103,0.18,0.154,0.349,0.154,0.506c0,0.18-0.058,0.329-0.176,0.446c-0.117,0.118-0.254,0.176-0.41,0.176
				c-0.241,0-0.433-0.129-0.577-0.388l-0.831-1.471l-0.831,1.471C281.304,175.561,281.108,175.697,280.862,175.697z"/>
			<path d="M290.042,175.697c-0.163,0-0.304-0.06-0.425-0.181c-0.121-0.12-0.18-0.267-0.18-0.442c0-0.132,0.039-0.268,0.117-0.406
				l0.894-1.399l-1.832,0.054c-0.198,0-0.351-0.06-0.46-0.181c-0.108-0.12-0.163-0.265-0.163-0.433c0-0.169,0.055-0.313,0.163-0.433
				c0.108-0.12,0.262-0.18,0.46-0.18l1.805,0.054l-0.849-1.345c-0.089-0.163-0.135-0.31-0.135-0.442
				c0-0.181,0.061-0.331,0.185-0.451c0.123-0.12,0.267-0.18,0.428-0.18c0.229,0,0.407,0.115,0.533,0.343l0.876,1.571l0.839-1.508
				c0.163-0.271,0.364-0.406,0.605-0.406c0.163,0,0.303,0.058,0.42,0.176c0.118,0.117,0.176,0.263,0.176,0.438
				c0,0.133-0.04,0.265-0.118,0.397l-0.884,1.408l1.833-0.054c0.199,0,0.352,0.06,0.46,0.18c0.108,0.12,0.162,0.265,0.162,0.433
				c0,0.169-0.054,0.313-0.162,0.433c-0.108,0.12-0.262,0.181-0.46,0.181l-1.85-0.054l0.821,1.282
				c0.103,0.18,0.153,0.349,0.153,0.506c0,0.18-0.058,0.329-0.176,0.446c-0.117,0.118-0.254,0.176-0.411,0.176
				c-0.241,0-0.433-0.129-0.577-0.388l-0.831-1.471l-0.831,1.471C290.484,175.561,290.288,175.697,290.042,175.697z"/>
		</g>
		
			<line style="fill:none;stroke:#FFFFFF;stroke-width:3;stroke-linecap:round;stroke-linejoin:round;stroke-miterlimit:10;" x1="321.461" y1="197.822" x2="333.685" y2="197.822"/>
		<path style="fill:none;stroke:#FFFFFF;stroke-width:3;stroke-linecap:round;stroke-linejoin:round;stroke-miterlimit:10;" d="
			M151.828,107.768v81.18c0,4.901,3.973,8.874,8.874,8.874h149.153"/>
		
			<line style="fill:none;stroke:#FFFFFF;stroke-width:3;stroke-linecap:round;stroke-linejoin:round;stroke-miterlimit:10;" x1="151.828" y1="86.228" x2="151.828" y2="98.409"/>
	</g>
</g>
</svg>
